<svg xmlns="http://www.w3.org/2000/svg" width="120" height="120" viewBox="0 0 83 33"><path d="M58.7 19.8c.2-1 .3-2 .5-2.9.6-3.2 1.1-6.4 1.7-9.6.2-.9-.4-1.6-1.4-1.6h-1.9c-1.3 0-2.1.8-2.4 2-.7 3.9-1.4 7.9-2.1 11.8 0 .1-.2.3-.3.3-1.8 0-3.5 0-5.3-.2-1.1-.1-2.1-.6-2.7-1.6 0 0-.1-.1-.1-.2-.2.3-.5.5-.7.7-.8.8-1.7 1.3-2.9 1.2-.8-.1-1.7 0-2.5-.1-1.4-.3-2.6-1-3.3-2.4-.1.5-.2 1-.3 1.4-.2 1.2-.2 1.1-1.4 1.1-.9 0-1.7-.2-2.4-.6-.6-.3-1-.8-1.6-1.3-.2.2-.4.4-.6.7-.8.8-1.7 1.2-2.9 1.2-1.1 0-2.2 0-3.3-.4-1.9-.7-3-2.4-2.6-4.4.4-2.6.8-5.3 1.4-7.9.6-2.6 2.2-4.4 5-5 .4-.1.8-.1 1.2-.1H35.1c-.2 1.3-.5 2.5-.7 3.8-.5 2.9-1 5.7-1.5 8.6 0 .3.1.6.2.8.3.6 1.4 1 2.1.9.3-3 .9-6 1.5-9 .6-2.6 2.2-4.5 5-5 .4-.1.8-.1 1.2-.1H50.2c-.1.8-.3 1.5-.4 2.3-.6 3.4-1.2 6.8-1.9 10.2-.1.5.1.9.5 1.2.2.1.3.2.5.3.4.1.8.3 1.1.2.5-.1.3-.6.4-1 .7-3.8 1.4-7.7 2.1-11.5.1-.5.2-1.1.3-1.6H60c.9 0 1.7.2 2.5.6 1.4.7 2.1 1.7 2.1 3.2 0 1.3-.3 2.5-.5 3.7-.5 3.1-1.1 6.3-1.7 9.4 0 .2 0 .4-.1.5 0 .1-.2.2-.2.2-1.1.2-2.2.2-3.4.2zM30.8 5.7h-3.6c-1.1 0-2 .7-2.2 1.8-.4 2.3-.9 4.7-1.3 7-.2 1.2.4 1.9 1.7 1.9h1.5c1.4 0 2.2-.7 2.4-2 .4-2.1.8-4.1 1.1-6.2.1-.9.3-1.7.4-2.5zm15.2 0h-3.6c-1.2 0-2 .7-2.2 1.8-.4 2.3-.9 4.7-1.3 7-.2 1.1.3 1.7 1.4 1.8.6.1 1.2 0 1.8 0 1.3 0 2.2-.7 2.4-2l1.1-5.7c0-.9.2-1.9.4-2.9zM14.6 19.8h-.8c-1.3 0-2.5 0-3.8-.1-1.9-.2-3.2-1.4-3.6-3-.2-.9-.1-1.7.1-2.6.4-2.3.8-4.6 1.3-6.9.5-2.8 2.7-4.8 5.6-5 1.7-.1 3.4-.1 5.1-.1h2.8c-.1.7-.2 1.4-.3 2-.7 3.7-1.3 7.3-2 11-.4 2.3-.8 4.6-1.3 6.9-.6 3.1-3.1 4.6-5.5 4.9-.6.1-1.2.1-1.8.1H4.1 4v-.2c.6-1 1.2-2.1 1.8-3.1.1-.1.4-.2.6-.2h5.5c1.4 0 2.1-.6 2.4-1.9.1-.6.2-1.1.3-1.8zm-1.4-3.5c.5.1.9 0 1.4.1.5 0 .6-.1.7-.6l1.5-8.4c.2-1.1-.4-1.7-1.5-1.8h-1.8c-1.2 0-2 .7-2.3 1.9-.2 1.3-.5 2.6-.7 3.8-.2 1.2-.4 2.3-.6 3.5-.1.8.4 1.4 1.2 1.5.8.1 1.5 0 2.1 0zM78.9 2.1c-.3 1.8-.6 3.5-.9 5.2-.4 2.4-.9 4.8-1.3 7.1-.2 1 .2 1.6 1.2 1.9.1 0 .3.3.2.4-.2 1-.4 2-.5 3.1-1.6-.1-3-.6-4-1.9-.3.3-.5.5-.7.8-.8.8-1.7 1.2-2.9 1.2-1-.1-2 0-3-.3-2.2-.7-3.3-2.4-3-4.7.4-2.6.8-5.2 1.4-7.8.6-2.4 2-4.2 4.6-4.8.5-.1 1.1-.2 1.6-.2h7.3zm-4.2 3.6H71c-1.1 0-2 .7-2.2 1.8-.5 2.4-.9 4.8-1.3 7.3-.2.9.3 1.5 1.3 1.7.6.1 1.2.1 1.9.1 1.4 0 2.2-.7 2.5-2.1.4-2.3.8-4.5 1.2-6.7.1-.9.2-1.5.3-2.1z" fill-rule="evenodd" clip-rule="evenodd" fill="#e72c30"/></svg>