<svg version="1.1" id="svg60" xmlns="http://www.w3.org/2000/svg" x="0" y="0" viewBox="0 0 428.9 383" xml:space="preserve"><style>.st80{fill:#fe7a52}.st81{fill:#ef38a0}.st82{fill:#febd09}.st83{fill:#e534aa}.st84{fill:#fe774a}</style><g id="g68" transform="translate(223.284 27.318)"><g id="g72"><path d="M394.2 487.7c1.9.5 5 .1 6.9-.8 1.4-.7 15.6-14.7 91-90.2 70.8-70.8 90-90.2 92.5-93.4 15-18.8 23.4-39.1 26.4-63.4.7-5.4.6-23.1-.2-28.5-1.1-8.5-2.7-15.5-5.2-23.1-11.1-34.1-37.2-61.7-70.7-74.9-32.1-12.6-68.5-11-99.4 4.4-12.9 6.4-23.3 14.2-35 26l-3.2 3.2-6.1-6c-8.1-7.9-14.2-12.8-22.4-17.8-28-17.1-61.7-22.2-93.8-14.2-14.3 3.6-28.6 10.2-40.7 18.7-10.9 7.7-22.2 19.2-29.9 30.2-9.5 13.6-16.2 29.6-19.4 46-2.5 12.5-2.9 28.1-1.1 40.6 3.1 21.9 11.9 42.1 25.6 59.2 4.7 5.9 18.2 19.5 103.6 104.9 53.9 53.9 77.6 77.4 78.6 77.8.6.7 1.8 1.1 2.5 1.3z" fill="#fbf3fc" transform="translate(-406.004 -132.628)"/><path d="M394.2 487.7c1.9.5 5 .1 6.9-.8 1.4-.7 15.6-14.7 91-90.2 70.8-70.8 90-90.2 92.5-93.4 15-18.8 23.4-39.1 26.4-63.4.7-5.4.6-23.1-.2-28.5-1.1-8.5-2.7-15.5-5.2-23.1-11.1-34.1-37.2-61.7-70.7-74.9-35.2-13.9-75.1-10.5-107.7 9-9.1 5.5-15.5 10.6-24.7 19.5l-5.3 5.2-4-4c-4.8-4.9-10.2-9.7-14.6-13-18-13.6-38.4-21.7-61.2-24.1-6.2-.7-18.5-.7-24.7 0-24.6 2.7-46.3 11.7-65.3 27.1-4.2 3.4-12.5 11.6-16 15.8-15.7 18.9-25 40.3-28 64.8-.8 6.5-.8 21.7 0 28 2 15.2 5.6 27.4 11.9 40.2 4.3 8.6 8.3 14.8 14.3 22.4 4.8 6 18 19.3 102.9 104.2 54.2 54.1 78 77.7 78.9 78.2.9.4 2.1.8 2.8 1z" fill="#fef4f4" transform="translate(-406.004 -132.628)"/><path d="M394.2 487.7c2 .5 4.8.1 7-.9 1.7-.8 11.9-10.9 90.9-90 95.2-95.3 92-91.9 98.7-101.9 10.9-16.1 17.4-33.5 20.1-53.6.5-3.5.6-6.5.6-15 0-11.2-.2-13.8-1.8-22.2-6.2-33.4-26.7-63.2-55.7-81-5.4-3.3-15.2-8.1-20.7-10.2-39-14.6-83-8.3-116.2 16.6-4.5 3.4-9.2 7.5-14.7 12.9l-5 4.9-4-4c-4.8-4.9-10.2-9.7-14.6-13-18-13.6-38.4-21.7-61.2-24.1-6.2-.7-18.5-.7-24.7 0-24.6 2.7-46.3 11.7-65.3 27.1-4.2 3.4-12.5 11.6-16 15.8-15.7 18.9-25 40.3-28 64.8-.8 6.5-.8 21.7 0 28 2 15.2 5.6 27.4 11.9 40.2 4.3 8.6 8.3 14.8 14.3 22.4 4.8 6 18 19.4 102.9 104.2 54.1 54.1 78 77.7 78.9 78.2.7.2 1.9.6 2.6.8z" fill="#f5e7fc" transform="translate(-406.004 -132.628)"/><path d="M394.2 487.7c2 .5 4.8.1 7-.9 1.7-.8 11.9-10.9 90.9-90 95.2-95.3 92-91.9 98.7-101.9 10.9-16.1 17.4-33.5 20.1-53.6.5-3.5.6-6.5.6-15 0-11.2-.2-13.8-1.8-22.2-6.2-33.4-26.7-63.2-55.7-81-5.4-3.3-15.2-8.1-20.7-10.2-33.8-12.6-71.9-9.6-103.2 8.1-3.9 2.2-12.1 7.8-15.5 10.4-4 3.2-9.7 8.3-13.8 12.5l-3.3 3.4-5.5-5.4c-11.1-10.9-19.9-17.3-32.3-23.5-10.2-5.1-19.4-8.2-30.4-10.4-50.5-10.1-101.7 12.4-128.7 56.5-4.9 8-9.8 19.1-12.6 28.4-9.1 30.1-5.9 63.5 8.6 91.3 4.8 9.2 9.7 16.2 17.1 24.8 1.8 2 42.2 42.7 89.9 90.5 61.1 61.2 87.1 87 88.1 87.4.6.2 1.8.6 2.5.8z" fill="#fef6e0" transform="translate(-406.004 -132.628)"/><path d="M394.2 487.7c2 .5 4.8.1 7-.9 1.7-.8 11.8-10.9 90.7-89.8 54-54 89.9-90.2 91.5-92.2 15.1-18.6 24-39.1 27.4-63.1.8-5.7 1-20.7.3-26.9-.6-6.1-1.5-11.4-2.7-16.5-7.5-31.3-27.2-58.5-54.5-75.2-5.4-3.3-15.2-8.1-20.7-10.2-33.8-12.6-71.9-9.6-103.2 8.1-3.9 2.2-12.1 7.8-15.5 10.4-4 3.2-9.7 8.3-13.8 12.5l-3.3 3.4-5.5-5.4c-11.1-10.9-19.9-17.3-32.3-23.5-10.2-5.1-19.4-8.2-30.4-10.4-50.5-10.1-101.7 12.4-128.7 56.5-4.9 8-9.8 19.1-12.6 28.4-9.1 30.1-5.9 63.5 8.6 91.3 4.8 9.2 9.7 16.2 17.1 24.8 1.8 2 42.2 42.7 89.9 90.5 61.1 61.2 87.1 87 88.1 87.4.7.2 1.9.6 2.6.8z" fill="#f1f1f1" transform="translate(-406.004 -132.628)"/><path d="M394.2 487.7c2 .5 4.8.1 7-.9 1.7-.8 11.8-10.9 90.7-89.8 54-54 89.9-90.2 91.5-92.2 15.1-18.6 24-39.1 27.4-63.1.8-5.7 1-20.7.3-26.9-.6-6.1-1.5-11.4-2.7-16.5-7.5-31.3-27.2-58.5-54.5-75.2-5.4-3.3-15.2-8.1-20.7-10.2-33.8-12.6-71.9-9.6-103.2 8.1-3.9 2.2-12.1 7.8-15.5 10.4-4 3.2-9.7 8.3-13.8 12.5l-3.3 3.4-5.5-5.4c-11.1-10.9-19.9-17.3-32.3-23.5-10.2-5.1-19.4-8.2-30.4-10.4-50.5-10.1-101.7 12.4-128.7 56.5-4.9 8-9.8 19.1-12.6 28.4-9.1 30.1-5.9 63.5 8.6 91.3 4.8 9.2 9.7 16.2 17.1 24.8 1.8 2 42.2 42.7 89.9 90.5 61.1 61.2 87.1 87 88.1 87.4.7.2 1.9.6 2.6.8z" fill="#fee6eb" transform="translate(-406.004 -132.628)"/><path d="M394.2 487.7c2 .5 4.8.1 7-.9 1.7-.8 11.8-10.9 90.7-89.8 54-54 89.9-90.2 91.5-92.2 15.1-18.6 24-39.1 27.4-63.1.8-5.7 1-20.7.3-26.9-1.2-11.7-3.5-21.4-7.4-31.7-14.9-39-48.7-67.5-89.7-75.7-33.6-6.7-69.2 1.3-96.4 21.7-5.8 4.3-8.7 6.8-14.9 12.9l-5.3 5.2-5.4-5.3c-11.1-10.9-19.9-17.3-32.3-23.5-10.2-5.1-19.4-8.2-30.4-10.4-50.5-10.1-101.7 12.4-128.7 56.5-4.9 8-9.8 19.1-12.6 28.4-9.1 30.1-5.9 63.5 8.6 91.3 4.8 9.2 9.7 16.2 17.1 24.8 1.8 2 42.2 42.7 89.9 90.5 61.1 61.2 87.1 87 88.1 87.4.6.2 1.8.6 2.5.8z" fill="#f4dafa" transform="translate(-406.004 -132.628)"/><path d="M394.2 487.7c2 .5 4.8.1 7-.9 1.7-.8 11.8-10.9 90.7-89.8 54-54 89.9-90.2 91.5-92.2 15.1-18.6 24-39.1 27.4-63.1.8-5.7 1-20.7.3-26.9-1.2-11.7-3.5-21.4-7.4-31.7-14.9-39-48.7-67.5-89.7-75.7-33.6-6.7-69.2 1.3-96.4 21.7-5.8 4.3-8.7 6.8-14.9 12.9l-5.3 5.2-5.4-5.2c-2.9-2.8-7-6.6-9.1-8.4-35.1-29.2-83.7-36.3-125.7-18.3-7.7 3.3-12.4 5.9-19.7 10.7-12.1 8.1-22.1 17.5-30.8 29.3-10.1 13.7-17.5 29.9-21 46.1-7.8 36 .5 72.9 23 101.6 1 1.2 3.2 3.9 5 5.9 1.8 2 42.2 42.7 89.9 90.5 61.1 61.2 87.1 87 88.1 87.4.6.3 1.8.7 2.5.9z" fill="#fef2d1" transform="translate(-406.004 -132.628)"/><path d="M213.5 308.8c3.7 4.3 175.8 176.3 177.6 177.5.7.4 1.9 1 2.7 1.2 2 .6 4.9.3 7.1-.7 1.6-.7 11.5-10.5 90.5-89.5 54.8-54.9 89.8-90 91.5-92.2 15.7-19.1 24.4-39 27.9-63.9.8-5.7.8-23.6 0-29.6-.8-5.8-2.2-13-3.8-18.4-12.3-43.7-48.3-77-93.1-85.9-33.6-6.7-69.2 1.3-96.4 21.7-5.8 4.3-8.7 6.8-14.9 12.9l-5.3 5.2-5.3-5.1c-2.9-2.8-7-6.6-9.1-8.4-35.1-29.2-83.7-36.3-125.7-18.3-7.7 3.3-12.4 5.9-19.7 10.7-12.1 8.1-22.1 17.5-30.8 29.3-10.1 13.7-17.5 29.9-21 46.1-7.8 36 .5 72.9 23 101.6.9 1.1 3.1 3.8 4.8 5.8z" fill="#fee5dc" transform="translate(-406.004 -132.628)"/><path d="M393.9 487.6c2 .6 4.9.3 7-.7 1.6-.7 11.5-10.5 90.5-89.5 54.8-54.9 89.8-90 91.5-92.2 15.7-19.1 24.4-39 27.9-63.9.8-5.7.8-23.6 0-29.6-2-15-6.4-29-12.9-41.4-17.2-32.6-47.9-55.7-83.9-62.9-33.6-6.7-69.2 1.3-96.4 21.7-5.8 4.3-8.7 6.8-14.9 12.9l-5.3 5.2-5.4-5.2c-2.9-2.8-7-6.6-9.1-8.4-35.1-29.2-83.7-36.3-125.7-18.3-7.7 3.3-12.4 5.9-19.7 10.7-12.1 8.1-22.1 17.5-30.8 29.3-10.1 13.7-17.5 29.9-21 46.1-6.2 28.3-2.3 57.6 10.8 82.7 4.9 9.3 10.2 17 17.8 25.6 3.5 4 175.9 176.1 177.2 176.9.5.3 1.6.8 2.4 1z" fill="#f5d1f6" transform="translate(-406.004 -132.628)"/><path d="M393.9 487.6c2 .6 4.9.3 7-.7 1.6-.7 11.5-10.5 90.5-89.5 54.8-54.9 89.8-90 91.5-92.2 15.7-19.1 24.4-39 27.9-63.9.8-5.7.8-23.6 0-29.6-2-15-6.4-29-12.9-41.4-17.2-32.6-47.9-55.7-83.9-62.9-33.6-6.7-69.2 1.3-96.4 21.7-5.8 4.3-8.7 6.8-14.9 12.9l-5.3 5.2-5.4-5.2c-8.3-8.1-14.8-13.3-23-18.4-15.4-9.5-31.6-15.1-50.6-17.4-4.5-.6-22-.6-26.6 0-20.6 2.5-37.9 8.8-54.4 19.8-12.2 8.1-22.1 17.5-30.8 29.3-10.1 13.7-17.5 29.9-21 46.1-6.2 28.3-2.3 57.6 10.8 82.7 4.9 9.3 10.2 17 17.8 25.6 3.5 4 175.9 176.1 177.2 176.9.6.3 1.7.8 2.5 1z" fill="#e6d5fe" transform="translate(-406.004 -132.628)"/><path d="M205.4 298.5c4.1 5.8 6.7 8.8 14.7 17.1 9.2 9.6 170.1 170.2 171.4 171 .5.3 1.6.8 2.4 1 2 .6 4.9.3 7.1-.7 1.6-.7 11.5-10.5 90.5-89.5 54.8-54.9 89.8-90 91.5-92.2 15.7-19.1 24.4-39 27.9-63.9.8-5.7.8-23.6 0-29.6-2-15-6.4-29-12.9-41.4-17.2-32.6-47.9-55.7-83.9-62.9-33.6-6.7-69.2 1.3-96.4 21.7-5.8 4.3-8.7 6.8-14.9 12.9l-5.3 5.2-5.5-5.2c-8.3-8.1-14.8-13.3-23-18.4-15.4-9.5-31.6-15.1-50.6-17.4-4.5-.6-22-.6-26.6 0-20.6 2.5-37.9 8.8-54.4 19.8-20.4 13.5-35.8 32.3-45.4 55-4.3 10.2-7.1 21.2-8.6 33.4-.7 5.7-.8 19.4-.2 25.3 2.4 21.6 9.9 41.6 22.2 58.8z" fill="#fed5e4" transform="translate(-406.004 -132.628)"/><path d="M210.9 305.7c3 3.7 178.7 179.7 180.5 180.8.6.4 1.8.9 2.6 1.1 2 .6 4.9.3 7-.7 1.6-.7 11.5-10.5 90.5-89.5 54.8-54.9 89.8-90 91.5-92.2 15.7-19.1 24.4-39 27.9-63.9.8-5.7.8-23.6 0-29.6-2-15-6.4-29-12.9-41.4-18.4-34.9-51.9-58.5-91-64-30.4-4.3-62 3.4-87.2 21.2-5.7 4-9.5 7.3-15.9 13.6l-6.3 6.2-5.4-5.2c-8.4-8.2-14.8-13.4-23.1-18.5-15.4-9.5-31.6-15.1-50.6-17.4-4.5-.6-22-.6-26.6 0-20.6 2.5-37.9 8.8-54.4 19.8-20.5 13.5-35.9 32.3-45.5 55-4.3 10.2-7.1 21.2-8.6 33.4-.7 5.7-.8 19.4-.2 25.3 2.7 24.6 11.8 46.6 27.7 66z" fill="#ecc9fc" transform="translate(-406.004 -132.628)"/><path d="M210.9 305.7c3 3.7 178.7 179.7 180.5 180.8.6.4 1.8.9 2.6 1.1 2 .6 4.9.3 7-.7 1.6-.7 11.5-10.5 90.5-89.5 54.8-54.9 89.8-90 91.5-92.2 15.7-19.1 24.4-39 27.9-63.9.8-5.7.8-23.6 0-29.6-2-15-6.4-29-12.9-41.4-18.4-34.9-51.9-58.5-91-64-30.4-4.3-62 3.4-87.2 21.2-5.7 4-9.5 7.3-15.9 13.6l-6.3 6.2-5.4-5.2c-8.4-8.2-14.8-13.4-23.1-18.5-15.4-9.5-31.6-15.1-50.6-17.4-4.5-.6-22-.6-26.6 0-28.7 3.5-53.1 15.2-73 34.9-20 19.9-31.9 44.6-35.4 73.3-.7 5.7-.8 19.4-.2 25.3 2.6 24.6 11.7 46.6 27.6 66z" fill="#feeec2" transform="translate(-406.004 -132.628)"/><path d="M610.8 240.8c.7-5.6.8-21.7.2-27.2-3.3-28-14.6-52.1-33.8-71.8-19.1-19.5-43.1-31.7-70.3-35.6-30.4-4.3-62 3.4-87.2 21.2-5.7 4-9.5 7.3-15.9 13.6l-6.3 6.2-5.4-5.2c-8.4-8.2-14.8-13.4-23.1-18.5-15.4-9.5-31.6-15.1-50.6-17.4-4.5-.6-22-.6-26.6 0-28.7 3.5-53.1 15.2-73 34.9-20 19.9-31.9 44.6-35.4 73.3-.7 5.7-.8 19.4-.2 25.3 2.6 24.6 11.7 46.6 27.5 66 4 4.9 179.3 180.2 181.1 181.1.7.4 2 .8 2.9.9 2.1.3 4.1.1 6-.7 1.4-.6 12-11.1 87.5-86.4 47.2-47.2 87.7-87.7 89.9-90.1 18.4-19.6 29.2-42.7 32.7-69.6z" fill="#feddd2" transform="translate(-406.004 -132.628)"/><path d="M610.8 240.8c.7-5.6.8-21.7.2-27.2-2.5-21.4-9.5-39.9-21.6-57.2-7.5-10.7-18-21.3-28.9-29-15.9-11.3-34-18.5-53.6-21.2-30.4-4.3-62 3.4-87.2 21.2-5.7 4-9.5 7.3-15.9 13.6l-6.3 6.2-5.4-5.2c-8.4-8.2-14.8-13.4-23.1-18.5-15.4-9.5-31.6-15.1-50.6-17.4-4.5-.6-22-.6-26.6 0-28.7 3.5-53.1 15.2-73 34.9-20 19.9-31.9 44.6-35.4 73.3-.7 5.7-.8 19.4-.2 25.3 2.6 24.6 11.7 46.6 27.5 66 4 4.9 179.3 180.2 181.1 181.1.7.4 2 .8 2.9.9 2.1.3 4.1.1 6-.7 1.4-.6 12-11.1 87.5-86.4 47.2-47.2 87.7-87.7 89.9-90.1 18.4-19.6 29.2-42.7 32.7-69.6z" fill="#f3c4f5" transform="translate(-406.004 -132.628)"/><path d="M610.8 240.8c.7-5.6.8-21.7.2-27.2-2.5-21.4-9.5-39.9-21.6-57.2-7.5-10.7-18-21.3-28.9-29-15.9-11.3-34-18.5-53.6-21.2-30.4-4.3-62 3.4-87.2 21.2-5.7 4-9.5 7.3-15.9 13.6l-6.3 6.2-4.9-4.8c-7.8-7.6-12.7-11.7-19.8-16.4-16.1-10.8-33-17-53.1-19.7-5.4-.7-22.5-.8-27.8-.2-28.7 3.6-53.2 15.3-73 34.9-20 19.9-31.9 44.6-35.4 73.3-.7 5.7-.8 19.4-.2 25.3 2.6 24.6 11.7 46.6 27.5 66 4 4.9 179.3 180.2 181.1 181.1.7.4 2 .8 2.9.9 2.1.3 4.1.1 6-.7 1.4-.6 12-11.1 87.5-86.4 47.2-47.2 87.7-87.7 89.9-90.1 18.3-19.6 29.1-42.7 32.6-69.6z" fill="#e3e3e3" transform="translate(-406.004 -132.628)"/><path d="M610.8 240.8c.7-5.6.8-21.7.2-27.2-2.5-21.4-9.5-39.9-21.6-57.2-7.5-10.7-18-21.3-28.9-29-15.9-11.3-34-18.5-53.6-21.2-30.4-4.3-62 3.4-87.2 21.2-5.7 4-9.5 7.3-15.9 13.6l-6.3 6.2-4.9-4.8c-7.8-7.6-12.7-11.7-19.8-16.4-16.1-10.8-33-17-53.1-19.7-5.4-.7-22.5-.8-27.8-.2-28.7 3.6-53.2 15.3-73 34.9-20 19.9-31.9 44.6-35.4 73.3-.7 5.7-.8 19.4-.2 25.3 2.6 24.6 11.7 46.6 27.5 66 4 4.9 179.3 180.2 181.1 181.1.7.4 2 .8 2.9.9 2.1.3 4.1.1 6-.7 1.4-.6 12-11.1 87.5-86.4 47.2-47.2 87.7-87.7 89.9-90.1 18.3-19.6 29.1-42.7 32.6-69.6z" fill="#fec8dc" transform="translate(-406.004 -132.628)"/><path d="M610.8 240.8c.7-5.6.8-21.7.2-27.2-2.9-24.7-12-46.2-27.6-65-4-4.8-11.9-12.6-16.4-16.3-18.9-15.2-40.3-24-64.3-26.5-6-.6-18.6-.6-24.9 0-23.6 2.4-45.1 11.3-63.9 26.2-2.2 1.7-6.8 5.9-10.2 9.3l-6.2 6.1-4.9-4.8c-7.8-7.6-12.7-11.7-19.8-16.4-16.1-10.8-33-17-53.1-19.7-5.4-.7-22.5-.8-27.8-.2-28.7 3.6-53.2 15.3-73 34.9-20 19.9-31.9 44.6-35.4 73.3-.7 5.7-.8 19.4-.2 25.3 2.6 24.6 11.7 46.6 27.5 66 4 4.9 179.3 180.2 181.1 181.1.7.4 2 .8 2.9.9 2.1.3 4.1.1 6-.7 1.4-.6 12-11.1 87.5-86.4 47.2-47.2 87.7-87.7 89.9-90.1 18.3-19.8 29.1-42.9 32.6-69.8z" fill="#ddc7fe" transform="translate(-406.004 -132.628)"/><path d="M610.8 240.8c.7-5.6.8-21.7.2-27.2-2.9-24.7-12-46.2-27.6-65-4-4.8-11.9-12.6-16.4-16.3-18.9-15.2-40.3-24-64.3-26.5-6-.6-18.6-.6-24.9 0-23.6 2.4-45.1 11.3-63.9 26.2-2.2 1.7-6.8 5.9-10.2 9.3l-6.2 6.1-4.9-4.8c-7.8-7.6-12.7-11.7-19.8-16.4-16.1-10.8-33-17-53.1-19.7-5.4-.7-22.5-.8-27.8-.2-28.7 3.6-53.2 15.3-73 34.9-20.3 20.2-32.6 46-35.6 74.9-.6 5.8-.5 19.2.2 25 3 25.1 12.1 46.4 28.3 65.8 1.3 1.6 42.1 42.6 90.6 91.1 62.9 63 88.6 88.4 89.5 88.9.7.4 2 .8 2.9.9 2.1.3 4.1.1 6-.7 1.4-.6 12-11.1 87.5-86.4 47.2-47.2 87.7-87.7 89.9-90.1 18.3-19.8 29.1-42.9 32.6-69.8z" fill="#f1b8f3" transform="translate(-406.004 -132.628)"/><path d="M610.8 240.8c.7-5.6.8-21.7.2-27.2-2.9-24.7-12-46.2-27.6-65-4-4.8-11.9-12.6-16.4-16.3-18.9-15.2-40.3-24-64.3-26.5-6-.6-18.6-.6-24.9 0-23.6 2.4-45.1 11.3-63.9 26.2-2.2 1.7-6.8 5.9-10.1 9.2l-6.1 6.1-5.1-4.9c-2.8-2.7-6.5-6.1-8.3-7.7-19.5-16.8-43.4-26.7-69.5-28.8-5.9-.5-19-.2-24.4.5-28 3.7-52.2 15.6-71.7 35-20 20-32.3 45.9-35.2 74.6-.6 5.8-.5 19.2.2 25 3 25.1 12.1 46.4 28.3 65.8 1.3 1.6 42.1 42.6 90.6 91.1 62.9 63 88.6 88.4 89.5 88.9.7.4 2 .8 2.9.9 2.1.3 4.1.1 6-.7 1.4-.6 12-11.1 87.5-86.4 47.2-47.2 87.7-87.7 89.9-90.1 18.1-19.7 28.9-42.8 32.4-69.7z" fill="#feeab2" transform="translate(-406.004 -132.628)"/><path d="M394.8 487.7c.8.1 1.7.2 2 .2.3-.1 1.2-.2 2-.3.9-.1 2.2-.7 3.4-1.4 2.3-1.5 175.5-174.8 179.8-179.9 19.4-22.9 29.6-50.3 29.6-79.8 0-28.7-9.8-55.6-28.2-77.8-4-4.8-11.9-12.6-16.4-16.3-18.9-15.2-40.3-24-64.3-26.5-6-.6-18.6-.6-24.9 0-23.6 2.4-45.1 11.3-63.9 26.2-2.2 1.7-6.8 5.9-10.1 9.2l-6.1 6.1-5.1-4.9c-2.8-2.7-6.5-6.1-8.3-7.7-19.5-16.8-43.4-26.7-69.5-28.8-5.9-.5-19-.2-24.4.5-28 3.7-52.2 15.6-71.7 35-20 20-32.3 45.9-35.2 74.6-.6 5.8-.5 19.2.2 25 3 25.1 12.1 46.4 28.3 65.8 1.3 1.6 42.1 42.6 90.6 91.1 62.9 63 88.6 88.4 89.5 88.9.6.2 1.9.6 2.7.8z" fill="#e6b5fc" transform="translate(-406.004 -132.628)"/><path d="M394.8 487.7c.8.1 1.7.2 2 .2.3-.1 1.2-.2 2-.3.9-.1 2.2-.7 3.4-1.4 2.3-1.5 175.5-174.8 179.8-179.9 19.4-22.9 29.6-50.3 29.6-79.8 0-28.7-9.8-55.6-28.2-77.8-4-4.8-11.9-12.6-16.4-16.3-18.9-15.2-40.3-24-64.3-26.5-6-.6-18.6-.6-24.9 0-23.6 2.4-45.1 11.3-63.9 26.2-2.2 1.7-6.8 5.9-10.1 9.2l-6.1 6.1-5.1-4.9c-2.8-2.7-6.5-6.1-8.3-7.7-19.5-16.8-43.4-26.7-69.5-28.8-5.9-.5-19-.2-24.4.5-13.9 1.8-26.2 5.5-38.1 11.2-10.5 5.1-18.2 10.1-26.7 17.4-24 20.6-38.9 49.1-42.2 81-.6 5.8-.5 19.2.2 25 3 25.1 12.1 46.4 28.3 65.8 1.3 1.6 42.1 42.6 90.6 91.1 62.9 63 88.6 88.4 89.5 88.9.7.2 2 .6 2.8.8z" fill="#d6bafe" transform="translate(-406.004 -132.628)"/><path d="M212.2 307.1c4.7 5.6 178.1 178.9 179.8 179.7.7.4 2 .8 2.9.9.8.1 1.7.2 2 .2.3-.1 1.2-.2 2-.3.9-.1 2.2-.7 3.4-1.4 2.3-1.5 175.5-174.8 179.8-179.9 19.4-22.9 29.6-50.3 29.6-79.8 0-28.7-9.8-55.6-28.2-77.8-4-4.8-11.9-12.6-16.4-16.3-18.9-15.2-40.3-24-64.3-26.5-6-.6-18.6-.6-24.9 0-23.6 2.4-45.1 11.3-63.9 26.2-2.2 1.7-6.8 5.9-10.1 9.2l-6.1 6.1-5.1-4.9c-2.8-2.7-6.5-6.1-8.3-7.7-19.5-16.8-43.4-26.7-69.5-28.8-5.9-.5-19-.2-24.4.5-9.7 1.3-19.4 3.7-28.1 6.9-4.7 1.8-14 6.1-18.2 8.6-31.1 18.1-52.7 48.7-59.2 83.7-1.4 7.8-1.9 13.2-1.9 22.3 0 9.1.4 13.9 1.9 22.1 3.7 21 12.9 40.2 27.2 57z" fill="#eaacf4" transform="translate(-406.004 -132.628)"/><path d="M212.2 307.1c4.7 5.6 178.1 178.9 179.8 179.7.7.4 2 .8 2.9.9.8.1 1.7.2 2 .2.3-.1 1.2-.2 2-.3.9-.1 2.2-.7 3.4-1.4 2.3-1.5 175.5-174.8 179.8-179.9 19.4-22.9 29.6-50.3 29.6-79.8 0-28.7-9.8-55.6-28.2-77.8-4-4.8-11.9-12.6-16.4-16.3-18.9-15.2-40.3-24-64.3-26.5-6-.6-18.6-.6-24.9 0-23.6 2.4-45.1 11.3-63.9 26.2-2.2 1.7-6.8 5.9-10.1 9.2l-6.1 6.1-5.1-4.9c-2.8-2.7-6.5-6.1-8.3-7.6-18.2-15.7-40-25.2-64.6-28.4-6.3-.8-22.4-.8-28.8 0-9 1.2-18.9 3.5-26.7 6.3-41 14.7-71.3 50.2-79.2 92.9-1.4 7.8-1.9 13.2-1.9 22.3 0 9.1.4 13.9 1.9 22.1 3.6 21 12.8 40.2 27.1 57z" fill="#feb9d2" transform="translate(-406.004 -132.628)"/><path d="M212.2 307.1c4.7 5.6 178.1 178.9 179.8 179.7.7.4 2 .8 2.9.9.8.1 1.7.2 2 .2.3-.1 1.2-.2 2-.3.9-.1 2.2-.7 3.4-1.4 2.3-1.5 175.5-174.8 179.8-179.9 19.4-22.9 29.6-50.3 29.6-79.8 0-28.7-9.8-55.6-28.2-77.8-4-4.8-11.9-12.6-16.4-16.3-18-14.4-38.1-23-61.3-26.2-5.7-.8-21.3-1-27.4-.3-20.2 2.1-38.4 8.6-54.8 19.3-7.6 5-12.4 8.9-20.1 16.5l-5.8 5.8-5.1-4.9c-2.8-2.7-6.5-6.1-8.3-7.7-18.2-15.7-40-25.2-64.6-28.4-6.3-.8-22.4-.8-28.8 0-9 1.2-18.9 3.5-26.7 6.3-41 14.7-71.3 50.2-79.2 92.9-1.4 7.8-1.9 13.2-1.9 22.3 0 9.1.4 13.9 1.9 22.1 3.7 21 12.9 40.2 27.2 57z" fill="#fee6a3" transform="translate(-406.004 -132.628)"/><path d="M395 487.7c2 .3 4.3-.1 6-.9.9-.5 28-27.3 91-90.3 95-95 92.3-92.3 98.5-101.5 12-17.8 18.9-37.8 20.6-59.5.5-6.4.2-18-.6-24.3-3.2-23.6-12.3-44.4-27.3-62.5-4-4.8-11.9-12.6-16.4-16.3-18-14.4-38.1-23-61.3-26.2-5.7-.8-21.3-1-27.4-.3-20.2 2.1-38.4 8.6-54.8 19.3-7.6 5-12.4 8.9-20.1 16.5l-5.8 5.8-5.1-4.9c-2.8-2.7-6.5-6.1-8.3-7.7-18.2-15.7-40-25.2-64.6-28.4-6.3-.8-22.4-.8-28.8 0-9 1.2-18.9 3.5-26.7 6.3-41 14.7-71.3 50.2-79.2 92.9-1.4 7.8-1.9 13.2-1.9 22.3 0 9.1.4 13.9 1.9 22.1 3.9 21.2 13.1 40.3 27.3 57.1 1.6 1.9 42.4 42.9 90.5 91.1 68 68 87.9 87.8 89.2 88.4 1 .4 2.5.8 3.3 1z" fill="#d5d5d5" transform="translate(-406.004 -132.628)"/><path d="M395 487.7c2 .3 4.3-.1 6-.9.9-.5 28-27.3 91-90.3 95-95 92.3-92.3 98.5-101.5 12-17.8 18.9-37.8 20.6-59.5.5-6.4.2-18-.6-24.3-3.2-23.6-12.3-44.4-27.3-62.5-4-4.8-11.9-12.6-16.4-16.3-18-14.4-38.1-23-61.3-26.2-5.7-.8-21.3-1-27.4-.3-20.2 2.1-38.4 8.6-54.8 19.3-7.6 5-12.4 8.9-20.1 16.5l-5.8 5.8-5.1-4.9c-2.8-2.7-6.5-6.1-8.3-7.7-18.2-15.7-40-25.2-64.6-28.4-6.3-.8-22.4-.8-28.8 0-9 1.2-18.9 3.5-26.7 6.3-41 14.7-71.3 50.2-79.2 92.9-1.4 7.8-1.9 13.2-1.9 22.3 0 9.1.4 13.9 1.9 22.1 3.9 21.2 13.1 40.3 27.3 57.1 1.6 1.9 42.4 42.9 90.5 91.1 68 68 87.9 87.8 89.2 88.4 1 .4 2.5.8 3.3 1z" fill="#d0affe" transform="translate(-406.004 -132.628)"/><path d="M395 487.7c2 .3 4.3-.1 6-.9.9-.5 28-27.3 91-90.3 95-95 92.3-92.3 98.5-101.5 12-17.8 18.9-37.8 20.6-59.5.5-6.4.2-18-.6-24.3-3.2-23.6-12.3-44.4-27.3-62.5-4-4.8-11.9-12.6-16.4-16.3-18-14.4-38.1-23-61.3-26.2-5.7-.8-21.3-1-27.4-.3-20.2 2.1-38.4 8.6-54.8 19.3-7.6 5-12.4 8.9-20.1 16.5l-5.8 5.8-5.1-4.9c-2.8-2.7-6.5-6.1-8.3-7.7-18.2-15.7-40-25.2-64.6-28.4-6.3-.8-22.4-.8-28.8 0-22.9 2.9-44.4 11.9-61.6 25.7-25.9 20.8-41.6 49.1-45.6 82.7-.8 6.4-.8 19.8 0 26.2 3 24.8 12 46 27.7 64.9 5 6.1 178.5 179.6 180.7 180.7.9.4 2.4.8 3.2 1z" fill="#eca2ef" transform="translate(-406.004 -132.628)"/><path d="M395 487.7c2 .3 4.3-.1 6-.9.9-.5 28-27.3 91-90.3 95-95 92.3-92.3 98.5-101.5 12-17.8 18.9-37.8 20.6-59.5.5-6.4.2-18-.6-24.3-3.2-23.6-12.3-44.4-27.3-62.5-4-4.8-11.9-12.6-16.4-16.3-18-14.4-38.1-23-61.3-26.2-5.7-.8-21.3-1-27.4-.3-20.2 2.1-38.4 8.6-54.8 19.3-7.6 5-12.4 8.9-20.1 16.5l-5.8 5.8-4.8-4.7c-11.6-11.3-20.2-17.6-32.1-23.7-13.3-6.8-27.4-11-42.9-12.7-5-.6-19.9-.6-25 0-11.8 1.3-21.9 3.8-32.5 8-23.3 9.2-43 25.1-56.8 45.9-11.1 16.6-17.4 33.9-19.9 54.7-.8 6.4-.8 19.8 0 26.2 3 24.8 12 46 27.7 64.9 5 6.1 178.5 179.6 180.7 180.7.9.3 2.4.7 3.2.9z" fill="#fec9b5" transform="translate(-406.004 -132.628)"/><path d="M395 487.7c2 .3 4.3-.1 6-.9.9-.5 28-27.3 91-90.3 95-95 92.3-92.3 98.5-101.5 12-17.8 18.9-37.8 20.6-59.5.8-9.9-.1-23-2.1-33.1-6.4-31.6-25.1-59.2-52-77-15.9-10.5-31.9-16.5-51.5-19.2-5.7-.8-21.3-1-27.4-.3-20.2 2.1-38.4 8.6-54.8 19.3-7.6 5-12.4 8.9-20.1 16.5l-5.8 5.8-4.8-4.7c-11.6-11.3-20.2-17.6-32.1-23.7-13.3-6.8-27.4-11-42.9-12.7-5-.6-19.9-.6-25 0-11.8 1.3-21.9 3.8-32.5 8-23.3 9.2-43 25.1-56.8 45.9-11.1 16.6-17.4 33.9-19.9 54.7-.8 6.4-.8 19.8 0 26.2 3 24.8 12 46 27.7 64.9 5 6.1 178.5 179.6 180.7 180.7.9.3 2.4.7 3.2.9z" fill="#feacc9" transform="translate(-406.004 -132.628)"/><path d="M395 487.7c2 .3 4.3-.1 6-.9.9-.5 28-27.3 91-90.3 95-95 92.3-92.3 98.5-101.5 12-17.8 18.9-37.8 20.6-59.5.8-9.9-.1-23-2.1-33.1-4.9-24.1-17-46.1-34.7-63.2-20.1-19.4-45.6-30.9-73.9-33.5-5.3-.5-20.7-.2-25.6.5-19.3 2.7-36.9 9.2-52.3 19.5-6.9 4.6-12 8.8-19.4 16.2l-5.7 5.6-4.8-4.7c-11.6-11.2-20.2-17.6-32.1-23.7-13.3-6.8-27.4-11-42.9-12.7-5-.6-19.9-.6-25 0-11.8 1.3-21.9 3.8-32.5 8-23.3 9.2-43 25.1-56.8 45.9-11.1 16.6-17.4 33.9-19.9 54.7-.8 6.4-.8 19.8 0 26.2 3 24.8 12 46 27.7 64.9 5 6.1 178.5 179.6 180.7 180.7.9.3 2.4.7 3.2.9z" fill="#fee192" transform="translate(-406.004 -132.628)"/><path d="M211.2 305.9c2.3 2.8 30.1 30.8 91.2 92 78.9 79 88.1 88 89.8 88.9 1.6.8 2.3.9 4.2.9 1.2 0 3-.2 3.8-.5 1.5-.5 8.2-7.1 90.2-89 48.7-48.7 89.9-90 91.5-91.9 6.5-7.5 11.8-15.5 16.4-24.5 4.5-8.9 7.4-16.7 9.8-26.2 2.6-10.5 3.4-17.3 3.3-29.4 0-8-.1-10.5-.7-14.8-1.9-14.2-5.7-26.6-11.9-39.1-6.3-12.7-14.2-23.3-24.3-33.1-20.1-19.4-45.6-30.9-73.9-33.5-5.3-.5-20.7-.2-25.6.5-19.3 2.7-36.9 9.2-52.3 19.5-6.9 4.6-12 8.8-19.4 16.2l-5.7 5.6-4.8-4.7c-11.6-11.2-20.2-17.6-32.1-23.7-13.3-6.8-27.4-11-42.9-12.7-5-.6-19.9-.6-25 0-11.8 1.3-21.9 3.8-32.5 8-23.3 9.2-43 25.1-56.8 45.9-11.1 16.6-17.4 33.9-19.9 54.7-.8 6.4-.8 19.8 0 26.2 2.9 24.6 11.9 45.7 27.6 64.7z" fill="#ea96ed" transform="translate(-406.004 -132.628)"/><path d="M211.2 305.9c2.3 2.8 30.1 30.8 91.2 92 78.9 79 88.1 88 89.8 88.9 1.6.8 2.3.9 4.2.9 1.2 0 3-.2 3.8-.5 1.5-.5 8.2-7.1 90.2-89 48.7-48.7 89.9-90 91.5-91.9 6.5-7.5 11.8-15.5 16.4-24.5 4.5-8.9 7.4-16.7 9.8-26.2 2.6-10.5 3.4-17.3 3.3-29.4 0-8-.1-10.5-.7-14.8-1.9-14.2-5.7-26.6-11.9-39.1-6.3-12.7-14.2-23.3-24.3-33.1-20.1-19.4-45.6-30.9-73.9-33.5-5.3-.5-20.7-.2-25.6.5-19.3 2.7-36.9 9.2-52.3 19.5-6.9 4.6-12 8.8-19.4 16.2l-5.7 5.6-5.7-5.5c-3.1-3-7.2-6.7-9.1-8.3-15.7-13-34.2-21.8-54-25.7-19.1-3.7-39.2-2.8-57.9 2.7-27.6 8-51.4 25.5-67.3 49.5-11.1 16.6-17.4 33.9-19.9 54.7-.8 6.4-.8 19.8 0 26.2 2.8 24.7 11.8 45.8 27.5 64.8z" fill="#db96fb" transform="translate(-406.004 -132.628)"/><path d="M211.2 305.9c2.3 2.8 30.1 30.8 91.2 92 78.9 79 88.1 88 89.8 88.9 1.6.8 2.3.9 4.2.9 1.2 0 3-.2 3.8-.5 1.5-.5 8.2-7.1 90.2-89 48.7-48.7 89.9-90 91.5-91.9 6.5-7.5 11.8-15.5 16.4-24.5 4.5-8.9 7.4-16.7 9.8-26.2 2.6-10.5 3.4-17.3 3.3-29.4 0-8-.1-10.5-.7-14.8-1.9-14.2-5.7-26.6-11.9-39.1-6.3-12.7-14.2-23.3-24.3-33.1-20.1-19.4-45.6-30.9-73.9-33.5-5.3-.5-20.7-.2-25.6.5-19.3 2.7-36.9 9.2-52.3 19.5-6.9 4.6-12 8.8-19.4 16.2l-5.7 5.6-5.7-5.5c-3.1-3-7.2-6.7-9.1-8.3-22.8-18.9-51.2-28.7-80.8-27.8-8 .2-13.4.8-20.8 2.3-22.1 4.4-41.9 14.4-58.7 29.8-7.1 6.4-13.3 13.7-19 22.4-11.2 16.8-17.4 33.8-19.9 54.6-.8 6.4-.8 19.8 0 26.2 2.9 24.6 11.9 45.7 27.6 64.7z" fill="#c9a5fe" transform="translate(-406.004 -132.628)"/><path d="M211.2 305.9c2.3 2.8 30.1 30.8 91.2 92 78.9 79 88.1 88 89.8 88.9 1.6.8 2.3.9 4.2.9 1.2 0 3-.2 3.8-.5 1.5-.5 8.2-7.1 90.2-89 48.7-48.7 89.9-90 91.5-91.9 6.5-7.5 11.8-15.5 16.4-24.5 4.5-8.9 7.4-16.7 9.8-26.2 2.6-10.5 3.4-17.3 3.3-29.4 0-8-.1-10.5-.7-14.8-1.9-14.2-5.7-26.6-11.9-39.1-6.3-12.7-14.2-23.3-24.3-33.1-20.1-19.4-45.6-30.9-73.9-33.5-5.3-.5-20.7-.2-25.6.5-19.3 2.7-36.9 9.2-52.3 19.5-6.9 4.6-12 8.8-19.4 16.2l-5.7 5.6-5.7-5.5c-3.1-3-7.2-6.7-9.1-8.3-15.7-13-34.2-21.8-54-25.7-19.1-3.7-39.2-2.8-57.9 2.7-24.1 7-45.3 21.2-61.3 41.2-3.1 3.9-9.1 12.8-11.7 17.6-13.5 24.5-17.9 52.8-12.8 81.2 3.4 19.4 12.6 38.9 26.1 55.2z" fill="#fedd84" transform="translate(-406.004 -132.628)"/><path d="M393.2 487.2c.6.2 2.2.4 3.4.4 4.6 0-4 8.2 95.6-91.4 59.9-60 90.3-90.6 92-92.8 15.2-19.1 23.6-39.3 26.6-63.5.7-5.7.8-20.3.2-25.9-3.3-29.3-15.8-55.1-36.5-75-20.1-19.4-45.6-30.9-73.9-33.5-5.3-.5-20.7-.2-25.6.5-19.3 2.7-36.9 9.2-52.3 19.5-6.9 4.6-12 8.8-19.4 16.2l-5.7 5.6-5.7-5.5c-3.1-3-7.2-6.7-9.1-8.3-15.7-13-34.2-21.8-54-25.7-19.1-3.7-39.2-2.8-57.9 2.7-24.1 7-45.3 21.2-61.3 41.2-3.1 3.9-9.1 12.8-11.7 17.6-13.5 24.5-17.9 52.8-12.8 81.2 3.5 19.7 12.8 39.1 26.2 55.4 2.3 2.8 30 30.7 91.1 91.8 48.2 48.3 88.2 88.1 88.8 88.5.4.3 1.4.8 2 1z" fill="#febba5" transform="translate(-406.004 -132.628)"/><path d="M393.2 487.2c.6.2 2.2.4 3.4.4 4.6 0-4 8.2 95.6-91.4 59.9-60 90.3-90.6 92-92.8 15.2-19.1 23.6-39.3 26.6-63.5.7-5.7.8-20.3.2-25.9-.6-5.3-1.8-12-3.1-17.1-7.7-31.3-28.2-58.7-56.3-75.1-4.5-2.7-14.2-7.3-18.8-9-10.2-3.8-20.9-6.2-32.3-7.2-5.3-.5-20.7-.2-25.6.5-19.3 2.7-36.9 9.2-52.3 19.5-6.9 4.6-12 8.8-19.4 16.2l-5.7 5.6-5.7-5.5c-3.1-3-7.2-6.7-9.1-8.3-15.7-13-34.2-21.8-54-25.7-19.1-3.7-39.2-2.8-57.9 2.7-24.1 7-45.3 21.2-61.3 41.2-3.1 3.9-9.1 12.8-11.7 17.6-13.5 24.5-17.9 52.8-12.8 81.2 3.5 19.7 12.8 39.1 26.2 55.4 2.3 2.8 30 30.7 91.1 91.8 48.2 48.3 88.2 88.1 88.8 88.5.5.2 1.5.7 2.1.9z" fill="#fe9dc1" transform="translate(-406.004 -132.628)"/><path d="M393.2 487.2c.6.2 2.2.4 3.4.4 4.6 0-4 8.2 95.6-91.4 59.9-60 90.3-90.6 92-92.8 15.2-19.1 23.6-39.3 26.6-63.5.7-5.7.8-20.3.2-25.9-.6-5.3-1.8-12-3.1-17.1-7.1-29-25.2-54.7-50.3-71.4-15.3-10.2-33.6-17-52.3-19.5-5.4-.7-19.5-1-25.4-.5-15.6 1.3-30.9 5.7-45 12.9-11.7 5.9-20.9 12.6-31.4 23l-6 5.9-5.7-5.5c-3.1-3-7.2-6.7-9.1-8.3-15.7-13-34.2-21.8-54-25.7-19.1-3.7-39.2-2.8-57.9 2.7-24.1 7-45.3 21.2-61.3 41.2-3.1 3.9-9.1 12.8-11.7 17.6-13.5 24.5-17.9 52.8-12.8 81.2 3.5 19.7 12.8 39.1 26.2 55.4 2.3 2.8 30 30.7 91.1 91.8 48.2 48.3 88.2 88.1 88.8 88.5.5.3 1.5.8 2.1 1z" fill="#e889ea" transform="translate(-406.004 -132.628)"/><path d="M393.2 487.2c.6.2 2.2.4 3.4.4 4.6 0-4 8.2 95.6-91.4 59.9-60 90.3-90.6 92-92.8 15.2-19.1 23.6-39.3 26.6-63.5.7-5.7.8-20.3.2-25.9-.6-5.3-1.8-12-3.1-17.1-7.1-29-25.2-54.7-50.3-71.4-15.3-10.2-33.6-17-52.3-19.5-5.4-.7-19.5-1-25.4-.5-22.5 1.9-44.6 10.3-62.5 23.7-5.2 3.9-10 8.1-15.5 13.6l-4.6 4.7-6.1-6c-11.1-10.9-19.4-16.9-32.3-23.3-12.9-6.3-24.2-9.7-38.9-11.7-4.4-.6-6.8-.7-14.6-.7-9.8 0-12.9.2-21.1 1.6-11.7 2-23.6 5.9-34.2 11.2-15.4 7.7-29.5 19.2-40.7 33-3.1 3.9-9.1 12.8-11.7 17.6-13.5 24.5-17.9 52.8-12.8 81.2 3.5 19.7 12.8 39.1 26.2 55.4 2.3 2.8 30 30.7 91.1 91.8 48.2 48.3 88.2 88.1 88.8 88.5.6.4 1.6.9 2.2 1.1z" fill="#c398fe" transform="translate(-406.004 -132.628)"/><path d="M211.5 306.3c3 3.7 177.7 178.7 179.5 179.9.6.4 1.6.9 2.2 1.1.6.2 2.2.4 3.4.4 4.6 0-4 8.2 95.6-91.4 59.9-60 90.3-90.6 92-92.8 15.2-19.1 23.6-39.3 26.6-63.5.7-5.7.8-20.3.2-25.9-.6-5.3-1.8-12-3.1-17.1-7.1-29-25.2-54.7-50.3-71.4-15.3-10.2-33.6-17-52.3-19.5-5.4-.7-19.5-1-25.4-.5-22.5 1.9-44.6 10.3-62.5 23.7-5.2 3.9-10 8.1-15.5 13.6l-4.6 4.7-6.1-6c-11.1-10.9-19.4-16.9-32.3-23.3-12.9-6.3-24.2-9.7-38.9-11.7-4.4-.6-6.8-.7-14.6-.7-9.8 0-12.9.2-21.1 1.6-13.7 2.3-27.6 7.3-39.7 14.1-4 2.3-11.2 7.1-15 10.1-23.6 18.5-39.9 45.7-45 75.2-2.4 13.8-2.3 29.3.2 42.7 3.9 21.1 12.4 39.2 26.7 56.7z" fill="#c8c8c8" transform="translate(-406.004 -132.628)"/><path d="M211.5 306.3c3 3.7 177.7 178.7 179.5 179.9.6.4 1.6.9 2.2 1.1.6.2 2.2.4 3.4.4 4.6 0-4 8.2 95.6-91.4 59.9-60 90.3-90.6 92-92.8 15.2-19.1 23.6-39.3 26.6-63.5.7-5.7.8-20.3.2-25.9-.6-5.3-1.8-12-3.1-17.1-7.1-29-25.2-54.7-50.3-71.4-15.3-10.2-33.6-17-52.3-19.5-5.4-.7-19.5-1-25.4-.5-22.5 1.9-44.6 10.3-62.5 23.7-5.2 3.9-10 8.1-15.5 13.6l-4.6 4.7-6.1-6c-11.1-10.9-19.4-16.9-32.3-23.3-12.9-6.3-24.2-9.7-38.9-11.7-4.4-.6-6.8-.7-14.6-.7-9.8 0-12.9.2-21.1 1.6-13.7 2.3-27.6 7.3-39.7 14.1-4 2.3-11.2 7.1-15 10.1-23.6 18.5-39.9 45.7-45 75.2-2.4 13.8-2.3 29.3.2 42.7 3.9 21.1 12.4 39.2 26.7 56.7z" fill="#d585fb" transform="translate(-406.004 -132.628)"/><path d="M211.5 306.3c3 3.7 177.7 178.7 179.5 179.9.6.4 1.6.9 2.2 1.1.6.2 2.2.4 3.4.4 4.6 0-4 8.2 95.6-91.4 59.9-60 90.3-90.6 92-92.8 15.2-19.1 23.6-39.3 26.6-63.5.7-5.7.8-20.3.2-25.9-.6-5.3-1.8-12-3.1-17.1-7.1-29-25.2-54.7-50.3-71.4-15.3-10.2-33.6-17-52.3-19.5-5.4-.7-19.5-1-25.4-.5-22.5 1.9-44.6 10.3-62.5 23.7-5.2 3.9-10 8.1-15.5 13.6l-4.6 4.7-6.1-6c-11.1-10.9-19.4-16.9-32.3-23.3-12.9-6.3-24.2-9.7-38.9-11.7-4.4-.6-6.8-.7-14.6-.7-9.8 0-12.9.2-21.1 1.6-21.5 3.7-41.7 13.1-58.4 27.3-4.7 4-12.3 11.8-16.2 16.7-13 16.2-21.6 35.3-25.1 55.5-2.4 13.7-2.3 29.3.2 42.7 3.9 21 12.4 39.1 26.7 56.6z" fill="#fed975" transform="translate(-406.004 -132.628)"/><path d="M211.5 306.3c3 3.7 177.7 178.7 179.5 179.9.6.4 1.6.9 2.2 1.1 1.9.7 5.9.4 7.9-.6 1.2-.6 22.1-21.3 91.1-90.4 60-60 90.3-90.6 92-92.8 11.6-14.6 19.6-30.8 23.8-47.8 12.1-50-7.9-101.8-50.4-130.1-15.3-10.2-33.6-17-52.3-19.5-5.4-.7-19.5-1-25.4-.5-22.5 1.9-44.6 10.3-62.5 23.7-5.2 3.9-10 8.1-15.5 13.6l-4.6 4.7-6.1-6c-11.1-10.9-19.4-16.9-32.3-23.3-12.9-6.3-24.2-9.7-38.9-11.7-4.4-.6-6.8-.7-14.6-.7-9.8 0-12.9.2-21.1 1.6-21.5 3.7-41.7 13.1-58.4 27.3-4.7 4-12.3 11.8-16.2 16.7-13 16.2-21.6 35.3-25.1 55.5-2.4 13.7-2.3 29.3.2 42.7 3.9 21 12.4 39.1 26.7 56.6z" fill="#fe91b9" transform="translate(-406.004 -132.628)"/><path d="M211.5 306.3c3 3.7 177.7 178.7 179.5 179.9.6.4 1.6.9 2.2 1.1 1.9.7 5.9.4 7.9-.6 1.2-.6 22.1-21.3 91.1-90.4 60-60 90.3-90.6 92-92.8 13.3-16.8 21.8-35.4 25.4-55.5 10-56.6-20.4-112-73.3-133.8-10-4.1-21-6.9-32.9-8.4-5.2-.6-22.1-.5-27.7.2-14 1.8-26.7 5.5-39 11.6-12.8 6.3-22.3 13.1-33.4 24l-5.9 5.8-6.1-6c-11.1-10.9-19.4-16.9-32.3-23.3-12.9-6.3-24.2-9.7-38.9-11.7-4.4-.6-6.8-.7-14.6-.7-9.8 0-12.9.2-21.1 1.6-21.5 3.7-41.7 13.1-58.4 27.3-4.7 4-12.3 11.8-16.2 16.7-13 16.2-21.6 35.3-25.1 55.5-2.4 13.7-2.3 29.3.2 42.7 3.8 21.2 12.3 39.3 26.6 56.8z" fill="#e476e7" transform="translate(-406.004 -132.628)"/><path d="M211.5 306.3c3 3.7 177.7 178.7 179.5 179.9.6.4 1.6.9 2.2 1.1 1.9.7 5.9.4 7.9-.6 1.2-.6 22.1-21.3 91.1-90.4 60-60 90.3-90.6 92-92.8 13.3-16.8 21.8-35.4 25.4-55.5 10-56.6-20.4-112-73.3-133.8-10-4.1-21-6.9-32.9-8.4-5.2-.6-22.1-.5-27.7.2-14 1.8-26.7 5.5-39 11.6-12.8 6.3-22.3 13.1-33.4 24l-5.9 5.8-6.1-6c-10.6-10.5-19.3-16.8-31.5-22.9-8.7-4.4-15.4-6.9-24.4-9.2-35.1-8.9-72.9-1.8-102 19.4-11.1 8.1-21.8 19.2-29.3 30.3-9.9 14.7-16.4 30.6-19.3 47.6-2.4 13.7-2.3 29.3.2 42.7 3.7 21.4 12.2 39.5 26.5 57z" fill="#b989fd" transform="translate(-406.004 -132.628)"/><path d="M391 486.2c.6.4 1.6.9 2.2 1.1 1.9.7 5.9.4 7.9-.6 1.2-.6 22.1-21.3 91.1-90.4 60-60 90.3-90.6 92-92.8 13.3-16.8 21.8-35.4 25.4-55.5 10-56.6-20.4-112-73.3-133.8-10-4.1-21-6.9-32.9-8.4-5.2-.6-22.1-.5-27.7.2-14 1.8-26.7 5.5-39 11.6-12.8 6.3-22.3 13.1-33.4 24l-5.9 5.8-6.1-6c-10.6-10.5-19.3-16.8-31.5-22.9-8.7-4.4-15.4-6.9-24.4-9.2-35.1-8.9-72.9-1.8-102 19.4-20.7 15.1-36.4 36.6-44.3 60.8-13.3 40.7-4.7 84.3 23 117.1 3.5 4.4 177.2 178.5 178.9 179.6z" fill="#fed565" transform="translate(-406.004 -132.628)"/><path d="M303 398.5c82.3 82.3 88 87.9 89.6 88.6 2.5 1 6.2.8 8.5-.4 1.2-.6 22-21.3 90.8-90.1 57.5-57.5 90.1-90.4 91.9-92.6 11.6-14.4 19.6-30.2 23.9-47.4 2.8-11 3.7-18.8 3.7-30.5 0-8.9-.5-13.9-1.9-21.9-8-43.4-39.3-79.2-81.3-92.9-7.8-2.6-15.8-4.3-24.7-5.4-5.2-.6-22.1-.5-27.7.2-14 1.8-26.7 5.5-39 11.6-12.8 6.3-22.3 13.1-33.4 24l-5.9 5.8-6.1-6c-10.6-10.5-19.3-16.8-31.5-22.9-8.7-4.4-15.4-6.9-24.4-9.2-35.1-8.9-72.9-1.8-102 19.4-20.7 15.1-36.4 36.6-44.3 60.8-13.3 40.7-4.7 84.3 23 117.1 1.6 2.3 40.4 41.3 90.8 91.8z" fill="#ce6ef9" transform="translate(-406.004 -132.628)"/><path d="M303 398.5c82.3 82.3 88 87.9 89.6 88.6 2.5 1 6.2.8 8.5-.4 1.2-.6 22-21.3 90.8-90.1 57.5-57.5 90.1-90.4 91.9-92.6 11.6-14.4 19.6-30.2 23.9-47.4 2.8-11 3.7-18.8 3.7-30.5 0-8.9-.5-13.9-1.9-21.9-8-43.4-39.3-79.2-81.3-92.9-7.8-2.6-15.8-4.3-24.7-5.4-5.2-.6-22.1-.5-27.7.2-14 1.8-26.7 5.5-39 11.6-12.8 6.3-22.3 13.1-33.4 24l-5.9 5.8-6.1-6c-7.9-7.8-13.6-12.3-22.2-17.7-4.2-2.7-14-7.6-18.8-9.5-41.2-16.2-87.1-9.3-121.7 18.3-5 4-14.6 13.6-18.4 18.3-11.4 14.3-19.3 30.2-23.6 47.1-9.6 38.5-.3 78.4 25.4 108.9 1.7 2.1 40.5 41.1 90.9 91.6z" fill="#fea98c" transform="translate(-406.004 -132.628)"/><path d="M303 398.5c82.3 82.3 88 87.9 89.6 88.6 2.5 1 6.2.8 8.5-.4 1.2-.6 22-21.3 90.8-90.1 57.5-57.5 90.1-90.4 91.9-92.6 15.5-19.2 24.6-41.2 27.2-65.6.6-5.9.5-19.5-.2-25.3-1.5-12.2-4.3-23.3-8.8-33.7-15.9-37.9-50.5-65.4-90.7-72.3-8.3-1.4-10.9-1.6-21.2-1.6-11.1 0-15 .4-24.3 2.2-10.3 2.1-19.4 5.2-29.1 9.9-12.8 6.3-22.3 13.1-33.4 24l-5.9 5.8-6.1-6c-7.9-7.8-13.6-12.3-22.2-17.7-4.2-2.7-14-7.6-18.8-9.5-41.2-16.2-87.1-9.3-121.7 18.3-5 4-14.6 13.6-18.4 18.3-11.4 14.3-19.3 30.2-23.6 47.1-9.6 38.5-.3 78.4 25.4 108.9 1.8 2.2 40.6 41.2 91 91.7z" fill="#fe82af" transform="translate(-406.004 -132.628)"/><path d="M303 398.5c82.3 82.3 88 87.9 89.6 88.6 2.5 1 6.2.8 8.5-.4 1.2-.6 22-21.3 90.8-90.1 57.5-57.5 90.1-90.4 91.9-92.6 15.5-19.2 24.6-41.2 27.2-65.6.6-5.9.5-19.5-.2-25.3-1.5-12.2-4.3-23.3-8.8-33.7-13.6-32.3-40.8-57.3-74-68.2-13.3-4.4-25.8-6.2-40.5-5.8-13.2.3-24.2 2.1-35.7 6-19.4 6.5-34.9 16.4-50.6 32.3l-3.8 3.9-6.1-6c-7.9-7.8-13.6-12.3-22.2-17.8-4.2-2.7-14-7.6-18.8-9.5-41.2-16.2-87.1-9.3-121.7 18.3-5 4-14.6 13.6-18.4 18.3-11.4 14.3-19.3 30.2-23.6 47.1-9.6 38.5-.3 78.4 25.4 108.9 1.8 2.1 40.6 41.1 91 91.6z" fill="#e067e6" transform="translate(-406.004 -132.628)"/><path d="M303 398.5c82.3 82.3 88 87.9 89.6 88.6 2.5 1 6.2.8 8.5-.4 1.2-.6 22-21.3 90.8-90.1 57.5-57.5 90.1-90.4 91.9-92.6 15.5-19.2 24.6-41.2 27.2-65.6.6-5.9.5-19.5-.2-25.3-1.5-12.2-4.3-23.3-8.8-33.7-13.6-32.3-40.8-57.3-74-68.2-13.3-4.4-25.8-6.2-40.5-5.8-13.2.3-24.2 2.1-35.7 6-19.4 6.5-34.9 16.4-50.6 32.3l-3.8 3.9-5.9-5.8c-10.7-10.5-19.6-17-31.7-23.1-35.3-17.9-78.2-17.1-113.1 2-5.3 2.9-13.1 8.1-18 12-5 4-14.6 13.6-18.4 18.3-11.4 14.3-19.3 30.2-23.6 47.1-9.6 38.5-.3 78.4 25.4 108.9 1.7 2 40.5 41 90.9 91.5z" fill="#b9b9b9" transform="translate(-406.004 -132.628)"/><path d="M303 398.5c82.3 82.3 88 87.9 89.6 88.6 2.5 1 6.2.8 8.5-.4 1.2-.6 22-21.3 90.8-90.1 57.5-57.5 90.1-90.4 91.9-92.6 15.5-19.2 24.6-41.2 27.2-65.6.6-5.9.5-19.5-.2-25.3-1.5-12.2-4.3-23.3-8.8-33.7-13.6-32.3-40.8-57.3-74-68.2-13.3-4.4-25.8-6.2-40.5-5.8-13.2.3-24.2 2.1-35.7 6-19.4 6.5-34.9 16.4-50.6 32.3l-3.8 3.9-5.9-5.8c-10.7-10.5-19.6-17-31.7-23.1-35.3-17.9-78.2-17.1-113.1 2-5.3 2.9-13.1 8.1-18 12-5 4-14.6 13.6-18.4 18.3-11.4 14.3-19.3 30.2-23.6 47.1-9.6 38.5-.3 78.4 25.4 108.9 1.7 2 40.5 41 90.9 91.5z" fill="#fed155" transform="translate(-406.004 -132.628)"/><path d="M600.5 277.2c14.4-31.9 14.7-68.2.7-99.8-16.4-37-50.2-63.5-90.1-70.4-8.2-1.4-14.3-1.8-23.5-1.6-13.2.3-24.2 2.1-35.7 6-19.4 6.5-34.9 16.4-50.6 32.3l-3.8 3.9-5.9-5.8c-10.7-10.5-19.6-17-31.7-23.1-35.3-17.9-78.2-17.1-113.1 2-5.3 2.9-13.1 8.1-18 12-5 4-14.6 13.6-18.4 18.3-11.4 14.3-19.3 30.2-23.6 47.1-9.6 38.5-.3 78.4 25.4 108.9 1.8 2.1 40.6 41.2 91 91.6 82.9 82.9 88 87.9 89.6 88.5 2.4.9 5.2.9 7.6 0 1.8-.7 4.9-3.7 89.3-88.1 48.1-48.1 88.9-89 90.7-90.9 7.8-8.8 15.2-20.1 20.1-30.9z" fill="#af76fe" transform="translate(-406.004 -132.628)"/><path d="M600.5 277.2c14.4-31.9 14.7-68.2.7-99.8-16.4-37-50.2-63.5-90.1-70.4-8.2-1.4-14.3-1.8-23.5-1.6-13.2.3-24.2 2.1-35.7 6-19.4 6.5-34.9 16.4-50.6 32.3l-3.8 3.9-5.9-5.8c-10.7-10.5-19.6-17-31.7-23.1-35.3-17.9-78.2-17.1-113.1 2-5.3 2.9-13.1 8.1-18 12-5 4-14.6 13.6-18.4 18.3-15 18.9-23.5 39.2-26.5 63.6-.7 5.3-.6 22.8.2 28.2 3.1 23.2 11.6 43.5 25.7 61.2 4.9 6.2 16.7 18.1 103.8 105.1 72.9 72.8 77.7 77.5 79.3 78.1 2.4.9 5.2.9 7.6 0 1.8-.7 4.9-3.7 89.3-88.1 48.1-48.1 88.9-89 90.7-90.9 7.7-8.9 15.1-20.2 20-31z" fill="#fe74a6" transform="translate(-406.004 -132.628)"/><path d="M610.2 243.5c4.2-29.7-2.5-59.3-19.1-84.2-19.5-29.4-50.1-48.4-85.4-53.1-6.4-.9-18.6-1.2-25-.6-25 2.1-47.8 11.1-67.3 26.8-2.4 1.9-7 6.1-10.2 9.3l-6 5.8-5.9-5.8c-10.6-10.4-19.6-16.9-31.7-23.1-35.3-17.9-78.2-17.1-113.1 2-5.3 2.9-13.1 8.1-18 12-5 4-14.6 13.6-18.4 18.3-15 18.9-23.5 39.2-26.5 63.6-.7 5.3-.6 22.8.2 28.2 3.1 23.2 11.6 43.5 25.7 61.2 4.9 6.2 16.7 18.1 103.8 105.1 72.9 72.8 77.7 77.5 79.3 78.1 2.4.9 5.2.9 7.6 0 1.8-.7 4.9-3.7 89.3-88.1 48.1-48.1 88.9-89 90.7-90.9 16-17.7 26.7-40.6 30-64.6z" fill="#c658f9" transform="translate(-406.004 -132.628)"/><path d="M610.2 243.5c4.2-29.7-2.5-59.3-19.1-84.2-19.5-29.4-50.1-48.4-85.4-53.1-6.4-.9-18.6-1.2-25-.6-25 2.1-47.8 11.1-67.3 26.8-2.4 1.9-7 6.1-10.2 9.3l-6 5.8-5.9-5.8c-10.6-10.4-19.6-16.9-31.7-23.1-30.2-15.2-66.2-17.1-98.1-5-5.4 2-15 6.7-19.8 9.7-30.4 18.5-51.3 49.4-57.1 83.9-1.3 7.7-1.5 10.4-1.5 20.8 0 11.4.3 14.6 2.3 24.4 3.8 18.7 12 36.2 24.1 51.3 4.9 6.2 16.7 18.1 103.8 105.1 72.9 72.8 77.7 77.5 79.3 78.1 2.4.9 5.2.9 7.6 0 1.8-.7 4.9-3.7 89.3-88.1 48.1-48.1 88.9-89 90.7-90.9 16-17.5 26.7-40.4 30-64.4z" fill="#fecd47" transform="translate(-406.004 -132.628)"/><path d="M212.9 307.8c3.4 4 176.5 177.3 178.1 178.3.6.4 1.7.9 2.4 1.1 2.1.7 5.6.4 7.6-.6 1.4-.7 16.5-15.6 90.5-89.7 48.9-48.9 89.9-90.2 91.2-91.8 4.7-5.7 8.5-11 11.9-16.9 2.6-4.5 7.2-14.1 8.9-18.7 11.5-31 10.1-65.2-3.9-95.1-6.2-13.2-16.4-27.1-27-36.8-19.2-17.5-41.4-27.9-66.9-31.3-6.4-.9-18.6-1.2-25-.6-25 2.1-47.8 11.1-67.3 26.8-2.4 1.9-7 6.1-10.2 9.3l-6 5.8-5.9-5.8c-10.6-10.4-19.6-16.9-31.7-23.1-30.2-15.2-66.2-17.1-98.1-5-5.4 2-15 6.7-19.8 9.7-30.4 18.5-51.3 49.4-57.1 83.9-1.3 7.7-1.5 10.4-1.5 20.8 0 11.4.3 14.6 2.3 24.4 4.2 20.4 13.1 38.4 27.5 55.3z" fill="#dd54e1" transform="translate(-406.004 -132.628)"/><path d="M212.9 307.8c3.4 4 176.5 177.3 178.1 178.3.6.4 1.7.9 2.4 1.1 2.1.7 5.6.4 7.6-.6 1.4-.7 16.5-15.6 90.5-89.7 48.9-48.9 89.9-90.2 91.2-91.8 4.7-5.7 8.5-11 11.9-16.9 2.6-4.5 7.2-14.1 8.9-18.7 11.5-31 10.1-65.2-3.9-95.1-6.2-13.2-16.4-27.1-27-36.8-19.2-17.5-41.4-27.9-66.9-31.3-6.4-.9-18.6-1.2-25-.6-25 2.1-47.8 11.1-67.3 26.8-2.4 1.9-7 6.1-10.2 9.3l-6 5.8-5.4-5.3c-6.1-6-10.6-9.8-16-13.7-17.1-12.3-35.8-19.4-57.7-22-6.4-.8-19.5-.8-25.9 0-15.6 1.8-28.8 5.8-42.5 12.7-34.1 17.1-58.7 50.6-65 88.2-1.3 7.7-1.5 10.4-1.5 20.8 0 11.4.3 14.6 2.3 24.4 4.1 20.2 13 38.2 27.4 55.1z" fill="#fe9976" transform="translate(-406.004 -132.628)"/><path d="M212.9 307.8c3.4 4 176.5 177.3 178.1 178.3.6.4 1.7.9 2.4 1.1 2.1.7 5.6.4 7.6-.6 1.4-.7 16.5-15.6 90.5-89.7 48.9-48.9 89.9-90.2 91.2-91.8 4.7-5.7 8.5-11 11.9-16.9 2.6-4.5 7.2-14.1 8.9-18.7 8.7-23.3 10.1-49 4-73.2-7.2-28.4-25-53.8-49.4-70.2-19.8-13.3-41.1-20.1-65-20.7-15.2-.4-28.7 1.7-42.7 6.5-18 6.2-32.6 15.4-47.3 29.7l-6 5.8-5.4-5.3c-6.1-6-10.6-9.8-16-13.7-17.1-12.3-35.8-19.4-57.7-22-6.4-.8-19.5-.8-25.9 0-15.6 1.8-28.8 5.8-42.5 12.7-34.1 17.1-58.7 50.6-65 88.2-1.3 7.7-1.5 10.4-1.5 20.8 0 11.4.3 14.6 2.3 24.4 4.2 20.4 13.1 38.4 27.5 55.3z" fill="#a464fe" transform="translate(-406.004 -132.628)"/><path d="M195.8 282.2c6 12 12.6 21 23.2 32 11.8 12.2 170.9 171.3 172 171.9.6.4 1.7.9 2.4 1.1 2.1.7 5.6.4 7.6-.6 1.4-.7 16.5-15.6 90.5-89.7 48.9-48.9 89.9-90.2 91.2-91.8 4.7-5.7 8.5-11 11.9-16.9 2.6-4.5 7.2-14.1 8.9-18.7 8.7-23.3 10.1-49 4-73.2-7.2-28.4-25-53.8-49.4-70.2-19.8-13.3-41.1-20.1-65-20.7-15.2-.4-28.7 1.7-42.7 6.5-18 6.2-32.6 15.4-47.3 29.7l-6 5.8-5.4-5.3c-6.1-6-10.6-9.8-16-13.7-17.1-12.3-35.8-19.4-57.7-22-6.4-.8-19.5-.8-25.9 0-27.7 3.3-51.9 14.5-71.5 33.2-20.3 19.4-33.1 44.8-36.9 73.6-.7 5.4-.8 22.5-.2 27.8 2 15.3 5.8 28.3 12.3 41.2z" fill="#acacac" transform="translate(-406.004 -132.628)"/><path d="M195.8 282.2c6 12 12.6 21 23.2 32 11.8 12.2 170.9 171.3 172 171.9.6.4 1.7.9 2.4 1.1 2.1.7 5.6.4 7.6-.6 1.4-.7 16.5-15.6 90.5-89.7 48.9-48.9 89.9-90.2 91.2-91.8 4.7-5.7 8.5-11 11.9-16.9 2.6-4.5 7.2-14.1 8.9-18.7 8.7-23.3 10.1-49 4-73.2-7.2-28.4-25-53.8-49.4-70.2-19.8-13.3-41.1-20.1-65-20.7-15.2-.4-28.7 1.7-42.7 6.5-18 6.2-32.6 15.4-47.3 29.7l-6 5.8-5.4-5.3c-6.1-6-10.6-9.8-16-13.7-17.1-12.3-35.8-19.4-57.7-22-6.4-.8-19.5-.8-25.9 0-27.7 3.3-51.9 14.5-71.5 33.2-20.3 19.4-33.1 44.8-36.9 73.6-.7 5.4-.8 22.5-.2 27.8 2 15.3 5.8 28.3 12.3 41.2z" fill="#fe679d" transform="translate(-406.004 -132.628)"/><path d="M195.8 282.2c6 12 12.6 21 23.2 32 11.8 12.2 170.9 171.3 172 171.9.6.4 1.7.9 2.4 1.1 2.1.7 5.6.4 7.6-.6 1.4-.7 16.5-15.6 90.5-89.7 48.9-48.9 89.9-90.2 91.2-91.8 7.1-8.6 11.6-15.6 16.6-25.9 5.6-11.6 9.1-23 10.8-35.7 4.3-31-3.3-62.5-21.3-87.6-19.1-26.7-48.5-44.7-80.8-49.4-13.6-2-28.9-1.6-42.2 1.1-19.9 4.1-38.3 12.9-54 25.9-1.9 1.6-6 5.3-9.1 8.4l-5.6 5.5-5.4-5.3c-6.1-6-10.6-9.8-16-13.7-17.1-12.3-35.8-19.4-57.7-22-6.4-.8-19.5-.8-25.9 0-27.7 3.3-51.9 14.5-71.5 33.2-20.3 19.4-33.1 44.8-36.9 73.6-.7 5.4-.8 22.5-.2 27.8 2 15.3 5.8 28.3 12.3 41.2z" fill="#c147f9" transform="translate(-406.004 -132.628)"/><path d="M195.8 282.2c6 12 12.6 21 23.2 32 11.8 12.2 170.9 171.3 172 171.9.6.4 1.7.9 2.4 1.1 2.1.7 5.6.4 7.6-.6 1.4-.7 16.5-15.6 90.5-89.7 48.9-48.9 89.9-90.2 91.2-91.8 7.1-8.6 11.6-15.6 16.6-25.9 5.6-11.6 9.1-23 10.8-35.7 4.3-31-3.3-62.5-21.3-87.6-19.1-26.7-48.5-44.7-80.8-49.4-13.6-2-28.9-1.6-42.2 1.1-19.9 4.1-38.3 12.9-54 25.9-1.9 1.6-6 5.3-9.1 8.4l-5.6 5.5-5.4-5.3c-6.1-6-10.6-9.8-16-13.7-17.1-12.3-35.8-19.4-57.7-22-6.4-.8-19.5-.8-25.9 0-20.6 2.4-38.4 8.9-55 20.1-26.6 17.8-45.4 45.7-51.7 76.9-1.9 9.7-2.3 13-2.3 24.2 0 10.5.2 13.1 1.6 21.4 2.1 11.4 5.8 22.5 11.1 33.2z" fill="#db45e0" transform="translate(-406.004 -132.628)"/><path d="M195.8 282.2c6 12 12.6 21 23.2 32 11.8 12.2 170.9 171.3 172 171.9.6.4 1.7.9 2.4 1.1 2.1.7 5.6.4 7.6-.6 1.4-.7 16.5-15.6 90.5-89.7 48.9-48.9 89.9-90.2 91.2-91.8 7.1-8.6 11.6-15.6 16.6-25.9 5.6-11.6 9.1-23 10.8-35.7 4.3-31-3.3-62.5-21.3-87.6-19.1-26.7-48.5-44.7-80.8-49.4-16.1-2.4-34-1.4-49.2 2.8-17.4 4.7-32.6 12.5-46.8 24.1-1.9 1.5-18.5 17.9-37.8 37.1L339.8 205l-87.3-87.3-2.8 1.4c-11.7 5.8-25.1 15.9-34.1 25.8-17.9 19.6-28.3 42.1-31.8 68.4-.7 5.4-.8 22.5-.2 27.8 1.9 15.2 5.7 28.2 12.2 41.1z" fill="#fec937" transform="translate(-406.004 -132.628)"/><path d="M195.8 282.2c6 12 12.6 21 23.2 32 12.3 12.7 170.3 170.7 171.7 171.6.8.5 2 1.2 2.7 1.4 2 .7 5.6.4 7.6-.6 1.4-.7 16.5-15.6 90.5-89.7 48.9-48.9 90-90.3 91.5-92.1 13.8-16.7 23-36.6 26.5-57.1 2.4-14.1 2.4-29.5-.2-43.1-3.3-17.7-10.3-34.3-20.5-48.6-19.1-26.7-48.5-44.7-80.8-49.4-16.1-2.4-34-1.4-49.2 2.8-17.4 4.7-32.6 12.5-46.8 24.1-1.9 1.5-18.5 17.9-37.8 37.1L339.8 205l-87.3-87.3-2.8 1.4c-11.7 5.8-25.1 15.9-34.1 25.8-17.9 19.6-28.3 42.1-31.8 68.4-.7 5.4-.8 22.5-.2 27.8 1.9 15.2 5.7 28.2 12.2 41.1z" fill="#ca45ee" transform="translate(-406.004 -132.628)"/><path d="M195.8 282.2c6 12 12.6 21 23.2 32 12.3 12.7 170.3 170.7 171.7 171.6.8.5 2 1.2 2.7 1.4 2 .7 5.6.4 7.6-.6 1.4-.7 16.5-15.6 90.5-89.7 48.9-48.9 90-90.3 91.5-92.1 13.8-16.7 23-36.6 26.5-57.1 2.4-14.1 2.4-29.5-.2-43.1-3.3-17.7-10.3-34.3-20.5-48.6-19.1-26.7-48.5-44.7-80.8-49.4-13.6-2-28.9-1.6-42.2 1.1-19.9 4.1-38 12.7-54 25.9-2 1.6-18.4 17.8-37.9 37.2l-34.4 34.3-43.5-43.7-43.7-43.7-2.9 1.5c-11.8 5.9-24.8 15.8-33.8 25.6-17.9 19.6-28.3 42.1-31.8 68.4-.7 5.4-.8 22.5-.2 27.8 1.9 15.3 5.7 28.3 12.2 41.2z" fill="#be42f9" transform="translate(-406.004 -132.628)"/><path d="M195.8 282.2c6 12 12.6 21 23.2 32 12.3 12.7 170.3 170.7 171.7 171.6.8.5 2 1.2 2.7 1.4 2 .7 5.6.4 7.6-.6 1.4-.7 16.5-15.6 90.5-89.7 48.9-48.9 90-90.3 91.5-92.1 13.8-16.7 23-36.6 26.5-57.1 2.4-14.1 2.4-29.5-.2-43.1-3.3-17.7-10.3-34.3-20.5-48.6-19.1-26.7-48.5-44.7-80.8-49.4-13.6-2-28.9-1.6-42.2 1.1-19.9 4.1-38 12.7-54 25.9-2 1.6-18.4 17.8-37.9 37.2l-34.4 34.3-43.5-43.7-43.7-43.7-2.9 1.5c-11.6 5.8-24.7 15.7-33.4 25.2-8 8.8-13.1 15.8-18.7 26.1l-2.4 4.5 43.8 43.8 43.8 43.8-43.7-43.7c-24.1-24-43.8-43.6-43.9-43.5-.3.3-1.9 4-3.6 8.4-3.4 8.6-6 19.2-7.4 29.4-.7 5.4-.8 22.5-.2 27.8 1.8 15.3 5.6 28.3 12.1 41.2z" fill="#fe906b" transform="translate(-406.004 -132.628)"/><path d="M195.8 282.2c6 12 12.6 21 23.2 32 12.3 12.7 170.3 170.7 171.7 171.6.8.5 2 1.2 2.7 1.4 2 .7 5.6.4 7.6-.6 1.4-.7 16.5-15.6 90.5-89.7 48.9-48.9 90-90.3 91.5-92.1 13.8-16.7 23-36.6 26.5-57.1 2.4-14.1 2.4-29.5-.2-43.1-3.6-19.6-11.4-37-23.8-52.9-18.8-24.2-47.1-40.6-77.5-45.1-13.6-2-28.9-1.6-42.2 1.1-19.9 4.1-38 12.7-54 25.9-2 1.6-18.4 17.8-37.9 37.2l-34.4 34.3-43.5-43.7-43.7-43.7-2.9 1.5c-11.6 5.8-24.7 15.7-33.4 25.2-8 8.8-13.1 15.8-18.7 26.1l-2.4 4.5 43.8 43.8 43.8 43.8-43.7-43.7c-24.1-24-43.8-43.6-43.9-43.5-.3.3-1.9 4-3.6 8.4-3.4 8.6-6 19.2-7.4 29.4-.7 5.4-.8 22.5-.2 27.8 1.8 15.3 5.6 28.3 12.1 41.2z" fill="#bd3bf9" transform="translate(-406.004 -132.628)"/><path d="M195.8 282.2c6 12 12.6 21 23.2 32 12.3 12.7 170.3 170.7 171.7 171.6.8.5 2 1.2 2.7 1.4 2 .7 5.6.4 7.6-.6 1.4-.7 16.5-15.6 90.5-89.7 48.9-48.9 90-90.3 91.5-92.1 13.8-16.7 23-36.6 26.5-57.1 2.4-14.1 2.4-29.5-.2-43.1-3.6-19.6-11.4-37-23.8-52.9-18.8-24.2-47.1-40.6-77.5-45.1-16.1-2.4-34-1.4-49.2 2.8-17.4 4.7-32.6 12.5-46.8 24.1-2 1.6-28.9 28.3-66.6 65.9l-63.3 63.2-43.7-43.7c-24-24-43.7-43.6-43.8-43.5-.3.3-1.9 4-3.6 8.4-3.4 8.6-6 19.2-7.4 29.4-.7 5.4-.8 22.5-.2 27.8 2.1 15.3 5.9 28.3 12.4 41.2z" fill="#9b55fe" transform="translate(-406.004 -132.628)"/><path d="M393.4 487.2c2 .7 5.6.4 7.6-.6 1.4-.7 16.5-15.6 90.5-89.7 48.9-48.9 90-90.3 91.5-92.1 13.8-16.7 23-36.6 26.5-57.1 2.4-14.1 2.4-29.5-.2-43.1-3.6-19.6-11.4-37-23.8-52.9-18.8-24.2-47.1-40.6-77.5-45.1-16.1-2.4-34-1.4-49.2 2.8-17.4 4.7-32.6 12.5-46.8 24.1-2 1.6-28.9 28.3-66.6 65.9l-63.3 63.2-43.7-43.7c-24-24-43.7-43.6-43.8-43.5-.1.1-1 2.2-2.1 4.6-4.4 10.4-7.4 21.4-8.9 33.3-.7 5.6-.8 22.4-.2 27.7 3.4 27.2 13.5 49.3 31.9 69.6 5 5.5 173.5 174.1 175.2 175.3 1 .5 2.2 1.1 2.9 1.3z" fill="#fe5996" transform="translate(-406.004 -132.628)"/><path d="M393.4 487.2c2 .7 5.6.4 7.6-.6 1.4-.7 16.5-15.6 90.5-89.7 48.9-48.9 90-90.3 91.5-92.1 13.8-16.7 23-36.6 26.5-57.1 2.4-14.1 2.4-29.5-.2-43.1-6-32.5-24.5-60.7-52-78.9-16.8-11.1-34.1-17.4-54.9-19.8-5.4-.6-20.4-.5-26.1.2-24.4 3-45.4 11.9-64.4 27.4-2 1.6-28.9 28.3-66.6 65.9L282 262.6l-43.7-43.7c-24-24-43.7-43.6-43.8-43.5-.1.1-1 2.2-2.1 4.6-4.4 10.4-7.4 21.4-8.9 33.3-.7 5.6-.8 22.4-.2 27.7 3.4 27.2 13.5 49.3 31.9 69.6 5 5.5 173.5 174.1 175.2 175.3 1.1.5 2.3 1.1 3 1.3z" fill="#fec527" transform="translate(-406.004 -132.628)"/><path d="M215.5 310.6c5.8 6.4 174 174.5 175.5 175.4.8.5 1.9 1 2.6 1.3 1.8.7 5.4.4 7.5-.6 1.4-.7 16.4-15.6 90.4-89.6 48.8-48.8 89.7-90 91.1-91.6 12.1-14.5 20.5-30.8 25-48.3 13.1-51-7.4-103.9-51.3-132.4-16.1-10.5-33.5-16.6-53.6-18.9-5.4-.6-20.4-.5-26.1.2-24.4 3-45.4 11.9-64.4 27.4-2 1.6-28.9 28.3-66.6 65.9l-63.3 63.2-43.7-43.7c-24-24-43.7-43.6-43.8-43.5-.1.1-1 2.2-2.1 4.6-4.4 10.4-7.4 21.4-8.9 33.3-.7 5.6-.8 22.4-.2 27.7 3.4 27.1 13.5 49.2 31.9 69.6z" fill="#fe8860" transform="translate(-406.004 -132.628)"/><path d="M215.5 310.6c5.8 6.4 174 174.5 175.5 175.4.8.5 1.9 1 2.6 1.3 1.8.7 5.4.4 7.5-.6 1.4-.7 16.4-15.6 90.4-89.6 48.8-48.8 89.7-90 91.1-91.6 12.1-14.5 20.5-30.8 25-48.3 6.3-24.5 5-49.7-3.8-73.5-1.9-5.1-7.5-16.3-10.4-21.1-11.3-18-25.8-31.7-44-42-14.4-8-29.2-12.7-46.6-14.7-5.4-.6-20.4-.5-26.1.2-24.4 3-45.4 11.9-64.4 27.4-2 1.6-28.9 28.3-66.6 65.9l-63.3 63.2-43.7-43.7c-24-24-43.7-43.6-43.8-43.5-.1.1-1 2.2-2.1 4.6-4.4 10.4-7.4 21.4-8.9 33.3-.7 5.6-.8 22.4-.2 27.7 3.3 27.1 13.4 49.2 31.8 69.6z" fill="#9d47fd" transform="translate(-406.004 -132.628)"/><path d="M215.5 310.6c5.8 6.4 174 174.5 175.5 175.4.8.5 1.9 1 2.6 1.3 1.8.7 5.4.4 7.5-.6 1.4-.7 16.4-15.6 90.4-89.6 48.8-48.8 89.7-90 91.1-91.6 12.1-14.5 20.5-30.8 25-48.3 6.3-24.5 5-49.7-3.8-73.5-1.9-5.1-7.5-16.3-10.4-21.1-11.3-18-25.8-31.7-44-42-14.4-8-29.2-12.7-46.6-14.7-5.4-.6-20.4-.5-26.1.2-24.4 3-45.4 11.9-64.4 27.4-2 1.6-28.9 28.3-66.7 66l-63.4 63.3-43.8-43.8-43.7-43.7-1.9 4.4c-4.5 10.5-7.5 21.6-9 33.5-.7 5.6-.8 22.4-.2 27.7 3.4 27.2 13.5 49.3 31.9 69.7z" fill="#954afe" transform="translate(-406.004 -132.628)"/><path d="M393.6 487.3c1.8.7 5.4.4 7.5-.6 1.4-.7 16.4-15.6 90.4-89.6 48.8-48.8 89.7-90 91.1-91.6 12.1-14.5 20.5-30.8 25-48.3 6.3-24.5 5-49.7-3.8-73.5-1.9-5.1-7.5-16.3-10.4-21.1-11.3-18-25.8-31.7-44-42-14.4-8-29.2-12.7-46.6-14.7-5.4-.6-20.4-.5-26.1.2-24.4 3-45.4 11.9-64.4 27.4-2 1.6-39.4 38.7-95.4 94.7l-92.1 92 82.5 82.5c46.6 46.6 83.1 82.9 83.9 83.3.6.4 1.7 1 2.4 1.3z" fill="#9d9d9d" transform="translate(-406.004 -132.628)"/><path d="M393.6 487.3c1.8.7 5.4.4 7.5-.6 1.4-.7 16.4-15.6 90.4-89.6 48.8-48.8 89.7-90 91.1-91.6 12.1-14.5 20.5-30.8 25-48.3 6.3-24.5 5-49.7-3.8-73.5-1.9-5.1-7.5-16.3-10.4-21.1-11.3-18-25.8-31.7-44-42-14.4-8-29.2-12.7-46.6-14.7-5.4-.6-20.4-.5-26.1.2-24.4 3-45.4 11.9-64.4 27.4-2 1.6-39.4 38.7-95.4 94.7l-92.1 92 82.5 82.5c46.6 46.6 83.1 82.9 83.9 83.3.6.4 1.7 1 2.4 1.3z" fill="#fec118" transform="translate(-406.004 -132.628)"/><path d="M393.8 487.3c.7.2 2.2.4 3.4.3 4.3-.2-2.6 6.4 93.9-90.2 48.4-48.4 89.3-89.6 90.9-91.4 15.7-18.6 25.3-40.1 28.4-63.8 4.9-37.3-8-75-34.6-101.5-17.9-17.9-40.9-29.6-65.7-33.7-7.3-1.2-10.9-1.5-20-1.5-9.6 0-14.2.4-22.4 1.9-20.1 3.7-39 12.6-55.5 26-2 1.6-39.5 38.8-95.4 94.7l-92.1 92 83 82.8c45.6 45.6 83.4 83.1 83.9 83.3.4.4 1.5.8 2.2 1.1z" fill="#fe4c8c" transform="translate(-406.004 -132.628)"/><path d="M393.8 487.3c.7.2 2.2.4 3.4.3 4.3-.2-2.6 6.4 93.9-90.2 48.4-48.4 89.3-89.6 90.9-91.4 15.7-18.6 25.3-40.1 28.4-63.8 4.9-37.3-8-75-34.6-101.5-31.9-31.8-78.3-43.1-121.8-29.8-15 4.6-28.9 12.2-42.1 23-2 1.6-39.1 38.5-95.3 94.6l-91.9 91.9 83 82.8c45.6 45.6 83.4 83.1 83.9 83.3.4.1 1.5.5 2.2.8z" fill="#fe7f55" transform="translate(-406.004 -132.628)"/><path d="M393.8 487.3c.7.2 2.2.4 3.4.3 4.3-.2-2.6 6.4 93.9-90.2 48.4-48.4 89.3-89.6 90.9-91.4 7.2-8.5 13.2-17.8 17.7-27.2 19.4-41 14.5-89.3-12.7-125.2-18.1-23.9-44.3-40.3-73.4-46-26.3-5.1-53.7-1.4-77.6 10.4-8.6 4.3-16.1 9.1-24.2 15.8-2 1.7-39 38.4-95.2 94.6l-91.9 91.9 83.1 82.9c45.7 45.6 83.5 83.1 83.9 83.3s1.4.5 2.1.8z" fill="#fea52a" transform="translate(-406.004 -132.628)"/><path class="st80" d="M469.5 304.5l130.2-130.2-2-3.8c-6.2-11.8-13.4-21.4-23.1-30.9-29.3-28.6-71.4-40.4-111.5-31.1-19.2 4.4-35.4 12.4-51.2 25.4-2 1.7-39 38.4-95.2 94.6l-91.9 91.9 83.1 82.9c11.2 11.2 21.9 21.8 31.7 31.6l129.9-130.4z" transform="translate(-406.004 -132.628)"/><path class="st80" d="M393.8 487.3c.7.2 2.2.4 3.4.3 4.3-.2-2.6 6.4 93.9-90.2 48.4-48.4 89.3-89.6 90.9-91.4 7.2-8.5 13.2-17.8 17.7-27.2 14.9-31.7 15.6-67.7 2-100.1-.9-2.2-1.8-3.9-1.9-3.9-.1 0-58.7 58.5-130.3 130l-130 129.9c30.2 30.1 51.9 51.5 52.2 51.7.4.2 1.4.6 2.1.9z" transform="translate(-406.004 -132.628)"/><path class="st81" d="M281.9 377.3c.1 0 58.7-58.5 130.2-130.1 80.6-80.6 130-130.2 129.8-130.4-.2-.2-2.2-1.1-4.5-2-32.3-13.7-69.9-12.5-101.4 3.2-8.6 4.3-16.1 9.1-24.2 15.8-2 1.7-39 38.4-95.2 94.6l-91.9 91.9 28.6 28.6c15.6 15.5 28.5 28.4 28.6 28.4zM393.8 487.3c.7.2 2.2.4 3.4.3 4.3-.2-2.6 6.4 93.9-90.2 48.4-48.4 89.3-89.6 90.9-91.4 7.2-8.5 13.2-17.8 17.7-27.2 14.9-31.7 15.6-67.7 2-100.1-.9-2.2-1.8-3.9-1.9-3.9-.1 0-58.7 58.5-130.3 130l-130 129.9c28.6 28.5 51.8 51.6 52.2 51.8.4.1 1.4.5 2.1.8zM282.2 377.4l54.3 54.3 2.9 2.9 130.1-130.1 130.2-130.2-2-3.8c-11.7-22.2-30.4-40.8-52-51.7l-3.1-1.6-130.2 130.1-130.2 130.1z" transform="translate(-406.004 -132.628)"/><path class="st82" d="M393.8 487.3c.7.2 2.2.4 3.4.3 4.3-.2-2.6 6.4 93.9-90.2 48.4-48.4 89.3-89.6 90.9-91.4 7.2-8.5 13.2-17.8 17.7-27.2 14.9-31.7 15.6-67.7 2-100.1-.9-2.2-1.8-3.9-1.9-3.9-.1 0-58.7 58.5-130.3 130l-130 129.9c28.6 28.5 51.8 51.6 52.2 51.8.4.1 1.4.5 2.1.8zM281.9 377.3c.1 0 58.7-58.5 130.2-130.1 80.6-80.6 130-130.2 129.8-130.4-1.3-1.2-15.3-6.2-21.8-7.8-38.1-9.5-77.5-.6-107.9 24.4C409.1 136 225 319.6 225 320.1c0 .2 12.8 13.1 28.4 28.8s28.4 28.4 28.5 28.4zM282.2 377.4l54.3 54.3 2.9 2.9 130.1-130.1 130.2-130.2-2-3.8c-11.7-22.2-30.4-40.8-52-51.7l-3.1-1.6-130.2 130.1-130.2 130.1z" transform="translate(-406.004 -132.628)"/><path class="st83" d="M281.9 377.3c.1 0 58.7-58.5 130.2-130.1 80.6-80.6 130-130.2 129.8-130.4-1.3-1.2-15.3-6.2-21.8-7.8-38.1-9.5-77.5-.6-107.9 24.4C409.1 136 225 319.6 225 320.1c0 .2 12.8 13.1 28.4 28.8s28.4 28.4 28.5 28.4zM469.5 304.4l130.1-130.1-1.3-2.6c-11-22-29.6-40.9-51.6-52.4l-4.2-2.2-260.3 260.3 28.6 28.6 28.6 28.6 130.1-130.2z" transform="translate(-406.004 -132.628)"/><path class="st84" d="M253.4 348.9c15.6 15.6 28.5 28.4 28.6 28.4.1 0 58.7-58.5 130.2-130.1 80.6-80.6 130-130.2 129.8-130.4-1.3-1.2-15.3-6.2-21.8-7.8-38.1-9.5-77.9-.5-107.9 24.4-3.1 2.5-187.3 186.2-187.3 186.8 0 .1 12.7 13.1 28.4 28.7zM469.5 304.4l130.1-130.1-1.3-2.6c-11-22-29.6-40.9-51.6-52.4l-4.2-2.2-260.3 260.3 28.6 28.6 28.6 28.6 130.1-130.2z" transform="translate(-406.004 -132.628)"/><path d="M281.9 377.3c.1 0 58.7-58.5 130.2-130.1 80.6-80.6 130-130.2 129.8-130.4-1.3-1.2-15.3-6.2-21.8-7.8-38.1-9.5-77.9-.5-107.9 24.4-3 2.5-187.2 186.2-187.2 186.8 0 .2 12.8 13.1 28.4 28.7s28.4 28.4 28.5 28.4z" fill="#fd3d83" transform="translate(-406.004 -132.628)"/><path d="M281.9 377.3c.3 0 260.3-260.1 260.1-260.3-.9-.8-9.3-4.2-14.8-5.9-39.8-12.7-83.9-4-115.7 22.9-3 2.5-186.6 185.7-186.6 186.2 0 .2 12.8 13.1 28.4 28.7s28.5 28.4 28.6 28.4z" fill="#d63aac" transform="translate(-406.004 -132.628)"/><path d="M281.9 377.3c.3 0 260.3-260.1 260.1-260.3-.9-.8-9.3-4.2-14.8-5.9-30.1-9.6-63.3-7.1-91.5 7-10.1 5.1-19.9 11.7-27.5 18.8-1.3 1.2-43.1 43-93 92.8l-90.6 90.6 28.5 28.5c15.8 15.7 28.7 28.5 28.8 28.5z" fill="#909090" transform="translate(-406.004 -132.628)"/><path d="M281.9 377.3c.3 0 260.3-260.1 260.1-260.3-.9-.8-9.3-4.2-14.8-5.9-30.1-9.6-63.3-7.1-91.5 7-10.1 5.1-19.9 11.7-27.5 18.8-1.3 1.2-43.1 43-93 92.8l-90.6 90.6 28.5 28.5c15.8 15.7 28.7 28.5 28.8 28.5z" fill="#fe2f7a" transform="translate(-406.004 -132.628)"/><path d="M282.1 377.3l130.1-130.1C515.4 144 542.1 117 541.8 116.8c-1.1-.7-8.5-3.7-12.8-5.1-8.2-2.8-17.2-4.7-26.6-5.8-5.5-.6-19.8-.5-25.6.2-9.3 1.1-16.3 2.7-24.6 5.4-14.2 4.6-26.7 11.5-39 21.3-1.9 1.5-38.2 37.5-95.6 94.9L225 320.2l28.6 28.6 28.5 28.5z" fill="#fe326a" transform="translate(-406.004 -132.628)"/><path d="M253.4 348.6C269 364.2 281.9 377 282 377c.1 0 58.7-58.5 130.2-130l130-130-3.3-1.5c-16.1-7.1-34.3-10.6-51.8-10.1-27.5.8-52.1 9.9-73.9 27.3-1.9 1.5-38.2 37.5-95.6 94.9L225 320.2l28.4 28.4z" fill="#fe2272" transform="translate(-406.004 -132.628)"/></g></g></svg>